<?xml version="1.0" standalone="no"?><!DOCTYPE svg PUBLIC "-//W3C//DTD SVG 1.1//EN" "http://www.w3.org/Graphics/SVG/1.1/DTD/svg11.dtd"><svg t="1612860706297" class="icon" viewBox="0 0 1024 1024" version="1.1" xmlns="http://www.w3.org/2000/svg" p-id="4885" xmlns:xlink="http://www.w3.org/1999/xlink" width="200" height="200"><defs><style type="text/css"></style></defs><path d="M823.7 79.9c13.8 0 26.8 5.4 36.6 15.2 9.8 9.8 15.2 22.8 15.2 36.6v733.8c0 13.8-5.4 26.8-15.2 36.6-9.8 9.8-22.8 15.2-36.6 15.2H200.3c-13.8 0-26.8-5.4-36.6-15.2-9.8-9.8-15.2-22.8-15.2-36.6V131.8c0-13.8 5.4-26.8 15.2-36.6 9.8-9.8 22.8-15.2 36.6-15.2h623.4" fill="#FFB36E" p-id="4886"></path><path d="M618.5 79.9H200.3c-13.8 0-26.8 5.4-36.6 15.2-9.8 9.8-15.2 22.8-15.2 36.6L142.6 820c0 5 92.1-22.8 93.5-18.1l382.4-722z" fill="#FFBB88" p-id="4887"></path><path d="M891.5 667.3c-0.1-4.3-3.7-7.8-8-7.8s-7.9 3.5-8 7.8c0 23.1-9.1 44.8-25.5 61.2-16.4 16.4-38.2 25.5-61.2 25.5H235.2c-56.5 0-102.7 46.2-102.7 102.7s46.2 102.7 102.7 102.7h553.6c56.5 0 102.7-46.2 102.7-102.7V667.4v-0.1z m-15.9 189.5c-0.1 0-0.1 0 0 0 0 23.1-9.1 44.8-25.5 61.2-16.4 16.4-38.2 25.5-61.2 25.5H235.2c-23.1 0-44.8-9.1-61.2-25.5-16.4-16.4-25.5-38.2-25.5-61.2s9.1-44.8 25.5-61.2c16.4-16.4 38.2-25.5 61.2-25.5h553.6c36.4 0 68.5-19.2 86.7-47.9v134.3c0 0.1 0 0.2 0.1 0.3z" fill="#581166" p-id="4888"></path><path d="M823.7 79.9c13.8 0 26.8 5.4 36.6 15.2 9.8 9.8 15.2 22.8 15.2 36.6v733.8c0 13.8-5.4 26.8-15.2 36.6-9.8 9.8-22.8 15.2-36.6 15.2H200.3c-13.8 0-26.8-5.4-36.6-15.2-9.8-9.8-15.2-22.8-15.2-36.6V131.8c0-13.8 5.4-26.8 15.2-36.6 9.8-9.8 22.8-15.2 36.6-15.2h623.4m0-16.1H200.3c-37.3 0-67.9 30.5-67.9 67.9v733.8c0 37.3 30.5 67.9 67.9 67.9h623.3c37.3 0 45.6-44.1 67.9-76.7v-725c0-37.3-30.5-67.9-67.8-67.9z" fill="#581166" p-id="4889"></path><path d="M875.6 856.8c-0.1 0-0.1 0 0 0 0 23.1-9.1 44.8-25.5 61.2-16.4 16.4-38.2 25.5-61.2 25.5H235.2c-23.1 0-44.8-9.1-61.2-25.5-16.4-16.4-25.5-38.2-25.5-61.2s9.1-44.8 25.5-61.2c16.4-16.4 38.2-25.5 61.2-25.5h553.6c36.4 0 68.5-19.2 86.7-47.9v134.3c0 0.1 0 0.2 0.1 0.3z" fill="#FFEBDE" p-id="4890"></path><path d="M883.6 722.2c-4.4 0-8 3.6-8 8v35c0 23.1-9.1 44.8-25.5 61.2-16.4 16.4-38.2 25.5-61.2 25.5H252.7c-4.4 0-8 3.6-8 8s3.6 8 8 8H792c53.5-1.6 97.1-44.6 99.6-97.9 0.1-0.5 0.1-0.9 0.1-1.4v-38.4c-0.1-4.4-3.7-8-8.1-8z" fill="#581166" p-id="4891"></path><path d="M445.2 867.9v81.6l-53.8-42.1-8.6-6.7-8.6 6.7-53.8 42.1v-81.6h124.8m14.7-16H305.7v128.7l77.1-60.3 77.1 60.3V851.9z" fill="#581166" p-id="4892"></path><path d="M445.2 867.9v81.5l-53.9-42.1-8.5-6.6-8.6 6.6-53.8 42.1v-81.5h124.8" fill="#FF5855" p-id="4893"></path><path d="M719.6 79.9V241H689V79.9h30.6m16-16H673V257h62.6V63.9z" fill="#581166" p-id="4894"></path><path d="M719.6 79.9V241h-30.7V79.9h30.7" fill="#FFD18D" p-id="4895"></path><path d="M719.6 368.3V754H689V368.3h30.6m16-16H673V770h62.6V352.3z" fill="#581166" p-id="4896"></path><path d="M719.6 368.3v385.8h-30.7V368.3h30.7" fill="#FFD18D" p-id="4897"></path><path d="M704.2 273.3m-103 0a103 103 0 1 0 206 0 103 103 0 1 0-206 0Z" fill="#FF5855" p-id="4898"></path><path d="M704.2 186.3c48 0 87 39 87 87s-39 87-87 87-87-39-87-87 39.1-87 87-87m0-16c-56.9 0-103 46.1-103 103s46.1 103 103 103 103-46.1 103-103c0.1-56.9-46.1-103-103-103z" fill="#581166" p-id="4899"></path><path d="M704.2 273.3m-42.3 0a42.3 42.3 0 1 0 84.6 0 42.3 42.3 0 1 0-84.6 0Z" fill="#FFFFFF" p-id="4900"></path><path d="M704.2 247c14.5 0 26.3 11.8 26.3 26.3s-11.8 26.3-26.3 26.3-26.3-11.8-26.3-26.3 11.8-26.3 26.3-26.3m0-16c-23.4 0-42.3 19-42.3 42.3 0 23.4 19 42.3 42.3 42.3 23.4 0 42.3-19 42.3-42.3 0.1-23.4-18.9-42.3-42.3-42.3z" fill="#581166" p-id="4901"></path></svg>