<?xml version="1.0" standalone="no"?><!DOCTYPE svg PUBLIC "-//W3C//DTD SVG 1.1//EN" "http://www.w3.org/Graphics/SVG/1.1/DTD/svg11.dtd"><svg t="1605331830443" class="icon" viewBox="0 0 1024 1024" version="1.1" xmlns="http://www.w3.org/2000/svg" p-id="2710" xmlns:xlink="http://www.w3.org/1999/xlink" width="200" height="200"><defs><style type="text/css"></style></defs><path d="M491.904 380.638H112.171c-16.032 0-29.091 10.99-29.091 24.437 0 13.446 13.059 24.436 29.09 24.436h379.864c16.032 0 29.09-10.99 29.09-24.436-0.129-13.576-13.187-24.437-29.22-24.437z m0 216.049H112.171c-16.032 0-29.091 10.99-29.091 24.436 0 13.447 13.059 24.437 29.09 24.437h379.864c16.032 0 29.09-10.99 29.09-24.437-0.129-13.446-13.187-24.436-29.22-24.436z m-0.517 216.307H112.56c-16.291 0-29.608 10.99-29.608 24.436 0 13.447 13.188 24.437 29.608 24.437h378.828c16.42 0 29.608-10.99 29.608-24.437 0-13.446-13.188-24.436-29.608-24.436zM681.19 334.739h93.737v316.897c0 16.033 10.99 29.091 24.437 29.091 13.446 0 24.307-13.058 24.307-29.09V334.738h93.737c14.74 0 21.85-3.878 23.273-6.723 1.164-2.327-0.13-9.438-8.145-19.394l-102.53-128.258c-8.404-10.602-19.264-16.291-30.513-16.291-11.378 0-22.109 5.818-30.513 16.29L666.32 308.753c-7.886 9.955-9.18 17.066-8.016 19.393 0.905 2.716 8.146 6.594 22.885 6.594z" p-id="2711" fill="#515151"></path><path d="M112.688 861.737h768c16.291 0 29.608-10.99 29.608-24.436s-13.188-24.436-29.608-24.436h-768c-16.29 0-29.608 10.99-29.608 24.436 0 13.576 13.188 24.436 29.608 24.436z m379.216-697.535H112.171c-16.032 0-29.091 10.99-29.091 24.436 0 13.447 13.059 24.437 29.09 24.437h379.864c16.032 0 29.09-10.99 29.09-24.437-0.129-13.446-13.187-24.436-29.22-24.436z" p-id="2712" fill="#515151"></path></svg>