<?xml version="1.0" standalone="no"?><!DOCTYPE svg PUBLIC "-//W3C//DTD SVG 1.1//EN" "http://www.w3.org/Graphics/SVG/1.1/DTD/svg11.dtd"><svg t="1608359352079" class="icon" viewBox="0 0 1024 1024" version="1.1" xmlns="http://www.w3.org/2000/svg" p-id="1246" xmlns:xlink="http://www.w3.org/1999/xlink" width="200" height="200"><defs><style type="text/css"></style></defs><path d="M728.064 573.44a164.864 164.864 0 1 0-164.864 164.864 164.864 164.864 0 0 0 164.864-164.864z" fill="#F4CA1C" p-id="1247"></path><path d="M512.5632 771.584a258.43712 258.43712 0 1 1 258.43712-258.43712A258.72896 258.72896 0 0 1 512.5632 771.584z m0-448.86016a190.42816 190.42816 0 1 0 190.4128 190.40256 190.63808 190.63808 0 0 0-190.4128-190.42304z m1.13664-128.67584a34.00192 34.00192 0 0 1-34.00192-34.00704V95.44704a34.00704 34.00704 0 0 1 68.00896 0V160.0512a34.00704 34.00704 0 0 1-34.00704 33.9968z m0 768.512a34.00192 34.00192 0 0 1-34.00192-34.00192V863.9488a34.00704 34.00704 0 1 1 68.00896 0v64.60928a34.00192 34.00192 0 0 1-34.00704 34.00192z m414.85824-416.55296H863.9488a34.00704 34.00704 0 1 1 0-68.00896h64.60928a34.00704 34.00704 0 0 1 0 68.00896z m-768.512 0H95.44704a34.00704 34.00704 0 0 1 0-68.00896H160.0512a34.00704 34.00704 0 0 1 0 68.00896z m600.81664-248.86784a34.00192 34.00192 0 0 1-24.064-58.04544l45.69088-45.68576a34.00192 34.00192 0 0 1 48.08192 48.08704L784.896 287.1808a33.88416 33.88416 0 0 1-24.03328 9.9584zM217.45152 840.5504a34.00704 34.00704 0 0 1-24.064-58.05568l45.68576-45.68064a34.00704 34.00704 0 1 1 48.10752 48.08192l-45.68576 45.68064a33.91488 33.91488 0 0 1-24.04352 9.97376z m589.10208 0a33.90976 33.90976 0 0 1-24.0384-9.9584l-45.696-45.696a34.00704 34.00704 0 1 1 48.08704-48.09728l45.68576 45.68064a34.00704 34.00704 0 0 1-24.04352 58.07104zM263.13728 297.1392a33.88416 33.88416 0 0 1-24.064-9.96352l-45.68576-45.68576a34.00192 34.00192 0 1 1 48.08704-48.08192L287.1808 239.104a34.00192 34.00192 0 0 1-24.04352 58.0352z" fill="#595BB3" p-id="1248"></path></svg>