<?xml version="1.0" standalone="no"?><!DOCTYPE svg PUBLIC "-//W3C//DTD SVG 1.1//EN" "http://www.w3.org/Graphics/SVG/1.1/DTD/svg11.dtd"><svg t="1638439602188" class="icon" viewBox="0 0 1024 1024" version="1.1" xmlns="http://www.w3.org/2000/svg" p-id="10209" xmlns:xlink="http://www.w3.org/1999/xlink" width="128" height="128"><defs><style type="text/css"></style></defs><path d="M509.813045 522.478902m-471.622448 0a471.622449 471.622449 0 1 0 943.244897 0 471.622449 471.622449 0 1 0-943.244897 0Z" fill="#A3D3FF" p-id="10210"></path><path d="M42.338623 435.883706l297.286216-84.307621 94.70233-274.32011c-0.004107 0-325.271023 12.509792-391.988546 358.627731z" fill="#D1E9FF" p-id="10211"></path><path d="M509.813045 1008.635873c-55.53017 0-106.345554-52.60191-143.07818-148.109204-34.826998-90.55841-54.006489-210.612987-54.00649-338.051874s19.179491-247.489358 54.00649-338.043661c36.732627-95.5114 87.54801-148.109203 143.07818-148.109203s106.345554 52.60191 143.078181 148.109203c34.826998 90.554303 54.010596 210.60888 54.010596 338.043661 0 127.43478-19.183598 247.493465-54.010596 338.051874-36.732627 95.5114-87.543903 148.109203-143.078181 148.109204z m0-939.458283c-79.313561 0-164.233118 182.147666-164.233118 453.301312s84.919557 453.305419 164.233118 453.305419 164.237225-182.151773 164.237225-453.305419-84.923664-453.301312-164.237225-453.301312z" fill="#6E6E96" p-id="10212"></path><path d="M509.813045 719.571786c-127.438887 0-247.489358-19.179491-338.047767-54.00649C76.253877 628.824456 23.656074 578.013179 23.656074 522.474795c0-55.53017 52.60191-106.345554 148.109204-143.078181 90.554303-34.826998 210.60888-54.010596 338.047767-54.010596 127.438887 0 247.489358 19.179491 338.047768 54.010596 95.5114 36.732627 148.109203 87.54801 148.109203 143.078181 0 55.534277-52.60191 106.349661-148.109203 143.086394-90.55841 34.831105-210.60888 54.010596-338.047768 54.010597z m0-361.330109c-271.153646 0-453.301312 84.919557-453.301312 164.233118 0 79.313561 182.147666 164.237225 453.301312 164.237225s453.305419-84.923664 453.305419-164.237225c-0.004107-79.313561-182.151773-164.233118-453.305419-164.233118z" fill="#6E6E96" p-id="10213"></path><path d="M514.26088 1006.077238c-269.108381 0-488.046171-218.941897-488.046171-488.054385 0-269.108381 218.93779-488.046171 488.046171-488.046171 269.112488 0 488.054385 218.93779 488.054385 488.046171 0 269.116595-218.93779 488.054385-488.054385 488.054385z m0-943.244897c-250.992592 0-455.190512 204.19792-455.190512 455.190512 0 250.996699 204.19792 455.198726 455.190512 455.198726 250.996699 0 455.198726-204.202027 455.198726-455.198726 0-250.992592-204.19792-455.190512-455.198726-455.190512z" fill="#6E6E96" p-id="10214"></path><path d="M687.903037 81.572387c140.10885 71.592481 236.043267 217.323756 236.043268 385.458483 0 238.922245-193.688216 432.606354-432.606354 432.606354-238.922245 0-432.602247-193.684109-432.602247-432.606354 0-60.963675 12.637108-118.970341 35.389652-171.576357C58.44611 361.839371 38.194703 437.735943 38.194703 518.367837c0 260.475557 211.150999 471.626556 471.618342 471.626556 260.467343 0 471.622449-211.150999 471.622449-471.626556 0-197.446082-121.356483-366.52541-293.532457-436.79545z" fill="#6E6E96" opacity=".15" p-id="10215"></path></svg>