<?xml version="1.0" standalone="no"?><!DOCTYPE svg PUBLIC "-//W3C//DTD SVG 1.1//EN" "http://www.w3.org/Graphics/SVG/1.1/DTD/svg11.dtd"><svg t="1747370178179" class="icon" viewBox="0 0 1024 1024" version="1.1" xmlns="http://www.w3.org/2000/svg" p-id="2678" xmlns:xlink="http://www.w3.org/1999/xlink" width="81" height="81"><path d="M925.558 97.72c-0.292-0.154-1.582-0.719-4.739-0.719-2.941 0-8.151 0.521-16.343 2.979-36.058 12.923-754.37 270.362-773.606 276.872-0.939 0.318-1.934 0.651-2.974 0.999-6.376 2.134-14.312 4.789-21.199 7.962-4.428 2.04-7.167 3.719-8.829 4.928 17.832 15.715 119.575 97.983 147.656 120.663l564.222-327.071-432.705 429.86 50.076 61.687-0.298 0.242c71.737 87.846 178.502 218.056 196.953 239.206 3.79-4.609 9.658-15.269 13.893-31.349l0.32-1.068c4.197-12.448 271.564-726.894 284.955-762.677 5.193-16.388 2.925-21.894 2.618-22.514z" fill="#53AFFD" p-id="2679"></path><path d="M360.942 646.668l-23.209 58.122 1.062-0.53 22.366-57.321z" fill="#53AFFD" p-id="2680"></path><path d="M952.158 78.229c-4.725-6.476-13.998-14.195-31.339-14.195-7.7 0-16.304 1.478-26.303 4.516l-0.769 0.254c-7.542 2.703-754.41 270.378-773.445 276.821-0.906 0.307-1.865 0.628-2.868 0.962-20.672 6.918-48.985 16.392-53.687 38.008-1.601 7.358-0.929 18.539 11.361 30.017l0.284 0.257c17.603 15.689 128.736 105.481 152.37 124.56l59.231 227.524 31.165-15.563 0.833 0.333 0.373-0.935 89.425-44.655c39.865 48.793 184.043 225.075 193.933 234.965l0.122 0.056c7.568 7.413 15.352 8.846 20.552 8.846h0.007c12.054 0 22.763-7.486 31.827-22.486 5.649-9.349 10.661-21.497 14.14-34.496 7.164-20.075 188.713-505.43 284.587-761.613l0.259-0.747c7.436-23.193 6.761-40.343-2.058-52.429z m-314.493 805.75c-4.234 16.08-10.103 26.74-13.893 31.349-18.451-21.149-125.216-151.36-196.953-239.206l0.298-0.242-50.076-61.687 432.705-429.86-564.222 327.071c-28.08-22.68-129.823-104.948-147.656-120.663 1.661-1.209 4.401-2.889 8.829-4.928 6.886-3.173 14.823-5.828 21.199-7.962 1.04-0.348 2.035-0.681 2.974-0.999 19.236-6.51 737.548-263.949 773.606-276.872 8.192-2.458 13.402-2.979 16.343-2.979 3.157 0 4.447 0.565 4.739 0.719 0.307 0.62 2.575 6.125-2.617 22.513-13.391 35.783-280.759 750.229-284.955 762.677l-0.321 1.069zM337.733 704.79l23.208-58.122 0.22 0.27 30.678 37.792-58.245 32.857 5.2-13.328-1.061 0.531z m267.594-363.852l-259.134 257.43-2.423 2.408-40.964 102.585-41.809-162.821 344.33-199.602z" fill="" p-id="2681"></path><path d="M343.769 600.777l2.423-2.408 259.135-257.431-344.331 199.603 41.808 162.821z" fill="#FFFFFF" p-id="2682"></path><path d="M391.84 684.731l-30.679-37.792-22.366 57.321-5.201 13.328z" fill="#1083EA" p-id="2683"></path></svg>