<?xml version="1.0" standalone="no"?><!DOCTYPE svg PUBLIC "-//W3C//DTD SVG 1.1//EN" "http://www.w3.org/Graphics/SVG/1.1/DTD/svg11.dtd"><svg t="1610870988842" class="icon" viewBox="0 0 1024 1024" version="1.1" xmlns="http://www.w3.org/2000/svg" p-id="8793" xmlns:xlink="http://www.w3.org/1999/xlink" width="200" height="200"><defs><style type="text/css"></style></defs><path d="M491.3664 905.6256h-226.816c-71.7824 0-130.2016-58.4192-130.2016-130.2016V237.9776c0-71.7824 58.4192-130.2016 130.2016-130.2016h463.104c71.7824 0 130.2016 58.4192 130.2016 130.2016v249.7024c0 14.1312-11.4688 25.6-25.6 25.6s-25.6-11.4688-25.6-25.6V237.9776c0-43.5712-35.4304-79.0016-79.0016-79.0016H264.5504c-43.5712 0-79.0016 35.4304-79.0016 79.0016v537.3952c0 43.5712 35.4304 79.0016 79.0016 79.0016h226.7648c14.1312 0 25.6 11.4688 25.6 25.6s-11.4176 25.6512-25.5488 25.6512z" fill="#191919" p-id="8794"></path><path d="M695.7568 350.8224H294.7584c-14.1312 0-25.6-11.4688-25.6-25.6s11.4688-25.6 25.6-25.6h400.9472c14.1312 0 25.6 11.4688 25.6 25.6s-11.4176 25.6-25.5488 25.6zM495.2576 498.5856H294.7584c-14.1312 0-25.6-11.4688-25.6-25.6s11.4688-25.6 25.6-25.6h200.4992c14.1312 0 25.6 11.4688 25.6 25.6s-11.4688 25.6-25.6 25.6zM430.4384 646.3488h-135.68c-14.1312 0-25.6-11.4688-25.6-25.6s11.4688-25.6 25.6-25.6h135.68c14.1312 0 25.6 11.4688 25.6 25.6s-11.4688 25.6-25.6 25.6z" fill="#191919" p-id="8795"></path><path d="M705.6896 718.1312m-172.8512 0a172.8512 172.8512 0 1 0 345.7024 0 172.8512 172.8512 0 1 0-345.7024 0Z" fill="#FACC31" p-id="8796"></path><path d="M920.576 883.1488l-53.4528-49.8688c23.2448-32.512 36.9664-72.2432 36.9664-115.1488 0-109.4144-89.0368-198.4512-198.4512-198.4512s-198.4512 89.0368-198.4512 198.4512 89.0368 198.4512 198.4512 198.4512c48.0768 0 92.2624-17.2032 126.6176-45.7728l53.3504 49.7664c4.9152 4.608 11.2128 6.8608 17.4592 6.8608 6.8608 0 13.6704-2.7136 18.7392-8.1408a25.5232 25.5232 0 0 0-1.2288-36.1472z m-362.1376-165.0176c0-81.2032 66.048-147.2512 147.2512-147.2512s147.2512 66.048 147.2512 147.2512-66.048 147.2512-147.2512 147.2512-147.2512-66.048-147.2512-147.2512z" fill="#191919" p-id="8797"></path></svg>