<?xml version="1.0" standalone="no"?><!DOCTYPE svg PUBLIC "-//W3C//DTD SVG 1.1//EN" "http://www.w3.org/Graphics/SVG/1.1/DTD/svg11.dtd"><svg t="1534515055105" class="icon" style="" viewBox="0 0 1024 1024" version="1.1" xmlns="http://www.w3.org/2000/svg" p-id="2317" xmlns:xlink="http://www.w3.org/1999/xlink" width="200" height="200"><defs><style type="text/css"></style></defs><path d="M512 32L156 188v334.4c0 148.8 75.2 287.2 199.2 368L512 992l156-101.6c124.8-80.8 199.2-219.2 199.2-368V188L512 32z" fill="#D6AB7F" p-id="2318"></path><path d="M388.8 839.2c-108-70.4-172-188.8-172-316.8V228L512 98.4l295.2 129.6v295.2c0 128.8-64 247.2-172 316.8L512 920l-123.2-80.8z" fill="#82CFCD" p-id="2319"></path><path d="M512 32L156 188v334.4c0 148.8 75.2 287.2 199.2 368L512 992V32z" fill="#FFFFFF" p-id="2320"></path><path d="M512 1000c-1.6 0-3.2-0.8-4-1.6L352 896.8c-128-82.4-204-222.4-204-374.4V188c0-3.2 1.6-6.4 4.8-7.2L508.8 24.8c2.4-0.8 4-0.8 6.4 0l356 156c3.2 1.6 4.8 4 4.8 7.2v334.4c0 152-76 292-203.2 374.4l-156 101.6c-1.6 0.8-3.2 1.6-4.8 1.6zM164 193.6v329.6c0 146.4 73.6 281.6 196 360.8l152 98.4 152-98.4c122.4-80 196-215.2 196-360.8V193.6L512 40.8 164 193.6z" fill="#6A576D" p-id="2321"></path><path d="M512 927.2c-1.6 0-3.2-0.8-4-1.6l-123.2-80c-109.6-71.2-175.2-192.8-175.2-324V228c0-3.2 1.6-6.4 4.8-7.2l295.2-129.6c2.4-0.8 4-0.8 6.4 0l295.2 129.6c3.2 1.6 4.8 4 4.8 7.2v295.2c0 131.2-65.6 252-175.2 324l-123.2 80H512zM224.8 232.8v289.6c0 125.6 63.2 241.6 168 310.4l118.4 76.8 118.4-76.8c105.6-68.8 168-184.8 168-310.4V232.8L512 107.2 224.8 232.8z" fill="#6A576D" p-id="2322"></path><path d="M512 599.2c-10.4 0-20-4.8-26.4-12.8L386.4 462.4l53.6-42.4 72 90.4 124-156.8 53.6 42.4-150.4 190.4c-7.2 8-16.8 12.8-27.2 12.8z" fill="#FFFFFF" p-id="2323"></path><path d="M512 607.2c-12.8 0-24.8-5.6-32.8-16L380 467.2c-1.6-1.6-1.6-4-1.6-5.6 0-2.4 1.6-4 3.2-5.6l53.6-42.4c3.2-2.4 8.8-2.4 11.2 1.6L512 497.6l118.4-148.8c2.4-3.2 8-4 11.2-1.6l53.6 42.4c3.2 2.4 4 8 1.6 11.2l-152 190.4c-8 10.4-20 16-32.8 16z m-114.4-144l94.4 118.4c4.8 6.4 12.8 9.6 20 9.6v8-8c8 0 15.2-4 20.8-9.6l145.6-184-40.8-32.8-119.2 150.4c-1.6 1.6-4 3.2-6.4 3.2-2.4 0-4.8-0.8-6.4-3.2l-67.2-84.8-40.8 32.8z" fill="#6A576D" p-id="2324"></path></svg>