<?xml version="1.0" standalone="no"?><!DOCTYPE svg PUBLIC "-//W3C//DTD SVG 1.1//EN" "http://www.w3.org/Graphics/SVG/1.1/DTD/svg11.dtd"><svg t="1538362020068" class="icon" style="" viewBox="0 0 1024 1024" version="1.1" xmlns="http://www.w3.org/2000/svg" p-id="3871" xmlns:xlink="http://www.w3.org/1999/xlink" width="200" height="200"><defs><style type="text/css"></style></defs><path d="M108.544 149.504h808.96v542.72H108.544z" fill="#FFEA00" p-id="3872"></path><path d="M788.48 921.6h-552.96c-16.384 0-30.72 14.336-30.72 30.72s14.336 30.72 30.72 30.72h552.96c16.384 0 30.72-14.336 30.72-30.72s-14.336-30.72-30.72-30.72zM471.04 430.08h368.64V225.28H471.04v204.8z m61.44-143.36h245.76v81.92H532.48v-81.92zM942.08 40.96H81.92C36.864 40.96 0 77.824 0 122.88v593.92c0 45.056 36.864 81.92 81.92 81.92h860.16c45.056 0 81.92-36.864 81.92-81.92V122.88c0-45.056-36.864-81.92-81.92-81.92z m20.48 655.36c0 22.528-18.432 40.96-40.96 40.96H102.4c-22.528 0-40.96-18.432-40.96-40.96V143.36c0-22.528 18.432-40.96 40.96-40.96h819.2c22.528 0 40.96 18.432 40.96 40.96v552.96zM307.2 430.08c57.344 0 102.4-45.056 102.4-102.4s-45.056-102.4-102.4-102.4-102.4 45.056-102.4 102.4 45.056 102.4 102.4 102.4z m0-143.36c22.528 0 40.96 18.432 40.96 40.96s-18.432 40.96-40.96 40.96-40.96-18.432-40.96-40.96 18.432-40.96 40.96-40.96z m-102.4 348.16h634.88v-61.44H471.04v-20.48h368.64v-61.44H204.8v143.36z" fill="" p-id="3873"></path></svg>