<?xml version="1.0" standalone="no"?><!DOCTYPE svg PUBLIC "-//W3C//DTD SVG 1.1//EN" "http://www.w3.org/Graphics/SVG/1.1/DTD/svg11.dtd"><svg t="1605624253236" class="icon" viewBox="0 0 1024 1024" version="1.1" xmlns="http://www.w3.org/2000/svg" p-id="2442" xmlns:xlink="http://www.w3.org/1999/xlink" width="200" height="200"><defs><style type="text/css"></style></defs><path d="M345.706 297.423c15.35 12.792 35.817 20.467 53.726 17.908 20.467 0 38.375-10.233 53.725-23.025 17.91-15.35 30.7-35.817 40.934-58.842C512 189.97 512 136.245 496.65 90.194c-10.234-30.7-28.142-58.842-53.726-76.75C427.574 3.21 404.548-1.906 384.081 0.652c-12.791 2.558-25.583 7.675-38.375 15.35-23.025 15.35-38.376 40.934-48.61 66.518-12.791 46.05-15.35 92.101-2.557 138.152 10.233 28.142 25.583 56.284 51.167 76.75z m255.837 2.558c17.909 15.35 40.934 25.584 63.96 25.584 20.466 2.558 38.375-2.558 56.283-12.792 17.909-10.233 33.26-25.584 43.493-43.492 12.792-20.467 23.025-40.934 30.7-63.96 5.117-17.908 7.675-38.375 5.117-58.842-2.559-28.142-15.35-53.726-33.259-76.751-12.792-15.35-28.142-30.7-46.05-38.376-12.792-5.116-28.143-10.233-40.935-7.675-17.908 2.559-33.258 12.792-46.05 23.026-17.909 15.35-33.259 33.258-43.493 53.725-10.233 17.909-20.466 38.376-23.025 61.401-2.558 25.584-2.558 51.168 2.559 74.193 5.116 23.025 12.791 46.05 30.7 63.96zM245.929 509.768c17.91-15.35 28.143-35.818 35.818-56.285 10.233-33.258 10.233-66.517 7.675-99.776 0-12.792-5.117-25.584-10.234-38.376-12.792-28.142-35.817-53.725-63.959-69.076-23.025-10.233-46.05-15.35-66.518-10.233-25.583 2.558-46.05 20.467-61.4 40.934-20.467 28.142-30.7 63.96-35.818 97.218-2.558 20.467 0 40.934 5.117 61.4 7.675 30.701 23.025 58.843 46.05 79.31 17.91 15.35 40.935 23.026 63.96 23.026 28.142 0 56.284-7.675 79.31-28.142z m736.811-76.752c-2.558-20.467-7.675-38.375-17.908-56.284-10.234-20.467-28.143-40.934-48.61-51.167-23.025-12.792-51.167-15.35-76.75-12.792-12.792 2.558-28.143 5.117-40.935 12.792-17.908 10.233-30.7 28.142-40.933 48.609-10.234 25.584-15.35 53.726-15.35 81.868 0 25.583 0 53.726 7.674 79.31 5.117 17.908 15.35 38.375 33.26 48.608 17.908 15.35 40.933 20.467 63.959 23.026 17.908 2.558 38.375 2.558 56.284-2.559 17.908-5.116 35.817-15.35 46.05-30.7 12.792-15.35 20.467-35.817 23.026-53.726 12.792-30.7 10.233-58.842 10.233-86.985zM911.106 819.33c-2.559-35.817-20.467-71.634-46.05-99.776-5.118-5.117-10.234-10.234-17.91-15.35-33.258-28.142-66.517-58.843-99.776-89.543-33.259-33.26-63.96-69.076-92.101-107.452-20.467-33.259-48.61-63.96-86.985-81.868-23.025-10.233-51.167-15.35-76.751-12.792-46.05 5.117-86.985 30.7-115.127 66.518-7.675 7.675-12.791 17.909-17.908 28.142-20.467 30.7-46.05 61.401-74.193 86.985-15.35 15.35-30.7 28.142-46.05 40.934-7.676 7.675-17.91 15.35-25.584 23.025-30.7 23.025-61.401 53.726-79.31 86.985-12.792 23.025-20.467 48.609-23.025 76.75 0 23.026 2.558 46.051 10.233 66.518 7.675 23.026 17.909 46.051 33.26 63.96 25.583 30.7 63.958 51.167 102.334 53.725 48.609 2.559 97.218 0 143.269-7.675 20.467-2.558 40.934-10.233 63.959-12.792 46.05-5.116 92.101-2.558 135.594 10.234 35.817 12.792 74.192 17.909 112.568 20.467 38.375 2.558 79.31-2.558 115.127-23.025 25.583-12.792 46.05-35.818 58.842-61.401 20.467-33.26 30.7-71.635 25.584-112.569zM481.3 924.224H363.615c-12.792 0-25.584 0-38.376-2.559-25.584-5.117-48.61-20.467-63.96-43.492-12.791-15.35-20.466-33.259-23.025-53.726a246.563 246.563 0 0 1 0-61.4c5.117-23.026 17.909-43.493 33.26-58.843 12.791-12.792 30.7-23.026 48.608-30.7 7.675-2.56 15.35-5.117 23.026-5.117h69.076v-97.219h66.517c2.559 120.244 2.559 237.929 2.559 353.056z m263.512 0H583.634c-17.908-2.559-33.258-7.676-46.05-17.909-15.35-12.792-23.026-33.259-23.026-51.167v-173.97h66.518v161.178c0 7.675 2.558 12.792 7.675 17.908 5.117 5.117 12.792 7.675 20.467 7.675h69.076V678.62h66.518v245.604z" fill="#306CFF" p-id="2443"></path><path d="M340.59 734.904c-12.793 5.117-25.585 15.35-33.26 30.7-5.116 12.792-7.675 25.584-7.675 38.376 0 15.35 5.117 30.7 12.792 43.492 10.234 15.35 28.142 25.584 46.05 23.026h53.727V732.346H353.38c-2.558-2.559-7.675 0-12.792 2.558z" fill="#306CFF" p-id="2444"></path></svg>