<?xml version="1.0" standalone="no"?><!DOCTYPE svg PUBLIC "-//W3C//DTD SVG 1.1//EN" "http://www.w3.org/Graphics/SVG/1.1/DTD/svg11.dtd"><svg t="1644219829271" class="icon" viewBox="0 0 1024 1024" version="1.1" xmlns="http://www.w3.org/2000/svg" p-id="1526" xmlns:xlink="http://www.w3.org/1999/xlink" width="200" height="200"><defs><style type="text/css"></style></defs><path d="M939.874646 772.973543c-3.399004-29.291419-9.197305-60.282339-17.894757-93.172703-8.49751-32.690423-21.993557-62.281753-40.188226-88.274139-18.29464-25.992385-40.288197-45.786586-66.080641-59.382603l50.48521-138.459435H734.434834c10.996778-32.490481 15.095577-65.180904 12.296397-98.471151 15.295519-3.099092 28.991506-6.398126 41.387875-9.79713 42.08767-11.496632 67.180318-24.492824 75.177975-38.988578 1.899444-3.399004 2.79918-6.798008 2.79918-10.296983 0-23.393147-42.987406-43.687201-129.16216-60.982134-6.99795-25.392561-17.594845-52.884506-31.690715-82.375867-14.09587-29.49136-28.591624-52.884506-43.387289-70.079468C648.759934 7.697745 633.064532 0.099971 615.069804 0.099971c-12.296398 0-29.49136 6.298155-51.584887 18.994435s-39.38846 18.994435-51.584888 18.994435-29.49136-6.298155-51.584887-18.994435S421.026652 0.099971 408.730255 0.099971c-17.994728 0-33.590159 7.597774-46.686323 22.793322-14.795665 17.194962-29.291419 40.588109-43.287318 70.079469-14.09587 29.49136-24.692766 56.983306-31.690715 82.375866-86.074783 17.194962-129.16216 37.489017-129.16216 60.982134 0 3.798887 1.099678 7.397833 3.199063 10.996779 8.49751 14.295812 34.090013 27.192034 76.777507 38.788636 11.796544 3.199063 24.892707 6.298155 39.38846 9.297276-0.899736 8.197598-1.299619 14.795665-1.299619 19.69423 0 26.292297 4.498682 52.484624 13.596016 78.776921h-131.961339l55.383774 135.460314c-21.693644 10.596895-40.987992 25.892414-57.58313 45.786586s-29.591331 41.187933-39.088548 63.681344-17.094992 47.885971-22.993264 75.977741c-5.998243 28.09177-9.79713 53.784243-11.596602 77.27736-1.799473 23.393147-2.699209 47.586059-2.699209 72.578737 0 49.585473 14.995607 88.47408 44.886849 116.865762 29.891243 28.291711 69.579615 42.487552 119.265059 42.487552h537.642488c49.585473 0 89.373816-14.09587 119.265059-42.487552 29.891243-28.191741 44.88685-67.180318 44.886849-116.865762 0.099971-31.790686-1.499561-62.281753-5.098506-91.673143zM338.150932 230.33252l10.396954-38.088841c5.898272-21.393732 15.195548-45.486674 27.691888-71.778971 11.396661-23.793029 22.593381-42.387582 33.490188-55.283804 3.598946 1.39959 9.697159 4.19877 18.594552 9.297276C461.014937 93.272674 487.607146 101.970126 511.800059 101.970126s50.685151-8.697452 83.475544-27.491946c8.997364-5.098506 14.995607-7.897686 18.594552-9.297276 10.896808 12.896222 22.093527 31.490774 33.490189 55.283804 12.496339 26.092356 21.793615 50.185297 27.791858 71.778971l10.496924 37.98887 29.591331 5.898272c-71.479059 13.895929-145.557356 20.593967-218.835888 19.494289-63.881285-0.899736-126.862833-7.397833-188.24485-19.494289l29.991213-5.798301z m307.50991 227.433369l-51.384946 43.987113c-47.386117 40.588109-117.265645 40.588109-164.651762 0l-51.384946-43.987113h0.799765l-14.195841-41.087963c0.199941 0.299912 0.299912 0.599824 0.499854 0.799766 0.999707 1.699502 2.79918 4.498682 5.59836 8.697452 2.699209 4.098799 5.198477 6.897979 7.397832 8.297569 2.199356 1.39959 5.198477 3.399004 8.697452 5.798301 3.498975 2.399297 7.097921 4.098799 10.696867 4.898565 3.798887 0.799766 7.897686 1.699502 12.596309 2.499268 4.698623 0.799766 9.697159 1.299619 14.995607 1.299619 14.795665 0 26.892121-2.599239 36.389339-7.597774 9.497218-5.198477 16.095285-11.29669 20.094113-18.494581 3.898858-7.097921 6.897979-14.195841 8.897393-21.193791 2.099385-6.99795 4.398711-13.096163 7.097921-18.094699 2.699209-5.198477 6.198184-7.597774 10.796837-7.597774h7.397832c4.498682 0 8.197598 2.599239 10.696867 7.597774 2.699209 5.198477 4.998536 11.096749 7.09792 18.094699s4.998536 14.09587 8.897393 21.193791c3.898858 7.097921 10.596895 13.296105 20.094114 18.494581 9.497218 5.198477 21.493703 7.597774 36.389339 7.597774 5.298448 0 10.396954-0.399883 14.995606-1.299619 4.698623-0.799766 8.897393-1.699502 12.496339-2.499268 3.798887-0.799766 7.297862-2.499268 10.696866-4.898565 3.498975-2.499268 6.298155-4.398711 8.697452-5.798301 2.199356-1.39959 4.698623-4.098799 7.397833-8.297569 2.399297-3.698916 4.098799-6.298155 5.198477-7.997657l-13.396075 39.588402h0.399883z m-18.994436 100.470565L512 862.047447 397.033682 557.63663l1.799472 1.599531c65.380845 55.783657 161.652641 55.683686 226.933516-0.199941l0.899736-0.799766z m0.999707-222.434833c-28.691594 0-62.981548 3.898858-102.769891 11.596602-2.79918 0.799766-7.097921 1.299619-12.896222 1.299619-5.698331 0-10.097042-0.399883-12.896222-1.299619-39.688373-7.797716-73.978327-11.596603-102.769891-11.596602-28.391682 0-46.686322 1.099678-54.78395 3.199062-1.199649-8.097628-1.799473-16.095285-1.799473-23.99297 0-0.799766 0-3.399004 0.499853-8.097628 50.985063 7.797716 102.869862 12.196427 155.354486 12.896222 5.298448 0.099971 10.596895 0.099971 15.895343 0.09997 57.383189 0 115.16626-4.498682 171.849654-13.096163 0.599824 10.796837 0.099971 21.493703-1.39959 32.090599-8.39754-2.099385-26.492239-3.099092-54.284097-3.099092zM243.178756 959.718832c-32.990335 0-57.58313-8.097628-75.277946-24.892707-7.997657-7.597774-13.895929-16.395197-17.994728-26.992092-4.598653-11.996485-6.99795-26.69218-6.99795-43.387289 0-23.193205 0.899736-45.986527 2.499268-67.680172 1.599531-20.493996 5.098506-43.687201 10.396954-68.87982 5.198477-24.292883 11.696573-45.986527 19.494289-64.481109 6.897979-16.495167 16.79508-32.490481 29.291419-47.486088 10.796837-12.896222 22.693352-22.49341 36.489309-29.191448l53.784243-26.292297-22.693351-55.483745-19.294348-47.286147h38.088841l5.198477 13.795958 181.646784 481.159036 2.699209 7.09792H243.178756z m630.915162-51.784828c-3.998828 10.496925-9.8971 19.294347-17.794787 26.79215h-0.099971c-17.694816 16.79508-42.287611 24.892707-75.277946 24.892708H543.490774l2.699209-7.097921 181.546813-480.959094 5.298448-13.895929h41.687786l-19.194376 52.584595-19.194377 52.584594 49.485502 25.992385c16.79508 8.797423 30.990921 21.693644 43.48726 39.488431 13.795958 19.69423 24.092942 42.387582 30.691008 67.680172v0.199941c7.597774 28.891536 13.096163 57.183247 16.195256 84.17534v0.599824c3.199063 25.592502 4.698623 52.984477 4.698623 83.675486 0.199941 16.595138-2.199356 31.290833-6.798008 43.287318z" p-id="1527"></path></svg>