<?xml version="1.0" encoding="utf-8"?>
<!-- Generator: Adobe Illustrator 27.0.0, SVG Export Plug-In . SVG Version: 6.00 Build 0)  -->
<svg version="1.1" id="图层_1" xmlns="http://www.w3.org/2000/svg" xmlns:xlink="http://www.w3.org/1999/xlink" x="0px" y="0px"
	 viewBox="0 0 548.5 302.3" style="enable-background:new 0 0 548.5 302.3;" xml:space="preserve">
<style type="text/css">
	.st0{fill-rule:evenodd;clip-rule:evenodd;fill:#7BC191;}
	.st1{fill-rule:evenodd;clip-rule:evenodd;}
	.st2{fill:none;}
</style>
<g>
	<path class="st0" d="M246.6,193.5c0,0,55.5,0.6,78.9-2.6c34-4.6,40.7-8.5,77.7-22.8l-30.3,87.1c0,0-113.8,75.1-200.3,25.8
		S77.1,167.1,77.1,167.1l73.4-59.1l28.3,42.6l-68.7,26l3.4,20.4l99.7,56.9l24,5.7l43.2-30.2l-0.8-15.4L246.6,193.5z"/>
	<path class="st1" d="M309.6,282.9c-11.7,3.2-37.9,8.8-37.9,8.8s1.9,4.6,2.7,5.9c0.3,0.4,1,0.8,1.5,0.8c0.9,0,1.7-0.4,2.6-0.6
		c2.5-0.5,5-0.9,7.4-1.3c1-0.2,2-0.5,2.9-0.9c1.1-0.5,2-0.5,2.3,0.7c0.4,1.2-0.3,2-1.4,2.3c-1.5,0.3-3.1,0.6-4.6,0.9
		c-2.6,0.5-5.1,1-7.7,1.6c-0.7,0.2-1.4,0.6-2.1,0.9c-1.6,0.7-3-0.1-3.6-1.8c-0.8-2.4-3.6-7.6-3.6-7.6s-6.6,1.1-8.8,1.2
		c-4.9,0.1-9.7,0.1-14.6-0.3c-4.8-0.4-9.5-1.4-14.2-2.2c-3.4-0.5-6.9-0.9-10.3-1.6c-5.8-1.3-11.5-2.8-17.2-4.3
		c-10-2.7-19.7-6.1-28.9-10.7c-2.7-1.3-5.2-3-7.8-4.6c-4.9-2.9-9.9-5.8-14.8-8.9c-3.7-2.4-7.3-4.9-10.8-7.6
		c-2.8-2.2-5.6-4.5-8.1-6.9c-5.8-5.6-3.4-2.7-16.3-17.9s-21.9-32.4-25-38.5c-1.8-3.5-2.8-7.5-4.3-11.1c-1.9-4.3-4-8.6-6.1-12.8
		c-0.8-1.5-1.7-1.6-3-0.4c-5,4.5-10,9-15,13.5c-0.1,0-0.1,0.1-0.2,0.1c-2.8,2.8-2.8,2.8-5.5-0.1c-0.8-0.9-1.7-1.8-2.6-2.7
		c-1-1-1.1-1.9,0-2.8c2.4-2,4.9-4,7.3-6.1c2.1-1.8,10.3-9.5,10.3-9.5s-0.6-2.1-1.4-4.9c-1.6-5.6-3.6-11.1-5.4-16.6
		c-2.2-6.6-4.5-13.3-6.6-19.9c-1.8-5.6-3.7-11.2-5.2-16.9c-1.1-3.8-1.7-7.7-2.6-11.6c-0.4-1.7-0.9-3.3-1.3-5c-0.4-1.3-1.3-1.6-2.4-1
		c-1.1,0.5-2.2,1.2-3.3,1.8c-0.8,0.4-1.6,0.7-2.2-0.2c-0.5-0.8-0.9-1.7,0.3-2.5s2.4-1.6,3.6-2.4c1.7-1.1,1.9-1.5,0.8-3.1
		c-1.3-1.9-2.8-3.6-4.2-5.3c-1.9-2.3-3.9-4.6-5.8-6.9c-1.5-1.7-3.1-3.4-4.4-5.1s-2.5-3.6-3.7-5.4c-0.7-1.1-1.2-2.3-2-3.3
		c-4-5-7.2-10.5-10.1-16.3C14,29.3,7.5,10.8,5.9,6.3C5.3,4.4,4.4,2.6,3.8,0.8C3.7,0.4,5.2-0.3,5.4,0.1c2.1,5.4,4.1,10.2,6.2,16.3
		s5.2,14,8.9,20.5c4.5,8,10,15.4,15.9,22.5c3.9,4.7,8,9.2,12,13.8c0.4,0.4,0.8,0.8,1.2,1.1c1.7,1.4,2.3,0.4,3.8-0.8
		c1.3-1.1,2.1-1.1,2.6-0.4c1,1.2,1,1.6,1.3,2.6c0.1,0.4-1,1.2-1.6,1.8c-0.4,0.4-0.7,0.7-1.1,1.1c0.4,0.1,0.9,0.3,1.3,0.4
		c2.5,0.6,5,1.3,7.6,1.8c5.2,1,10.5,1.8,15.8,2.8c1.8,0.3,3.6,1,5.4,1.4c4.1,1,8.3,2,12.4,2.8c5.2,1,10.4,1.8,15.6,2.8
		c3.2,0.6,6.5,1.2,9.7,1.8c4.2,0.8,8.4,1.8,12.7,2.6c3.7,0.6,13.2,2.5,13.2,2.5s12.7-9.7,15-11.9c1-0.9,1.9-0.9,3-0.2
		c1.4,0.9,2.9,1.6,4.2,2.6c1.6,1.1,1.7,1.6,0.3,2.9c-3,2.6-6,5.2-9.2,7.6c-4.3,3.2-8.6,6.3-13,9.4c-0.9,0.7-0.8,1.1-0.2,2
		c2.5,3.5,4.9,7,7.2,10.5c3,4.6,5.9,9.4,9,14c2.9,4.3,15,14.8,15,14.8s8.7-2.1,13-3.1c1-0.2,1.7-0.1,2.6,0.6
		c5.3,3.7,10.1,8,14.7,12.5c2.9,2.8,11.7,10.4,11.7,10.4s11.4,4,17.1,5.5c11.3,3,27.2,14,30.9,17.3c1.5,1.3,2,1.6,5.6,4.4
		c1.3,0.7,1.6,0.4,3,0.3c5-0.1,23.3-1.8,27.4-2.3c4.4-0.6,8.8-1.1,13.3-1.7c6.2-0.8,12.4-1.6,18.5-2.6c6.2-1.1,12.3-2.4,18.4-3.7
		c3.6-0.7,7.1-1.4,10.6-2.5c8.3-2.6,16.6-5.2,24.8-8.1c3.1-1.1,7.7-2.9,7.7-2.9s4.6-13.6,5.4-17.2c0.6-2.7,0.2-3.6,3.1-4.2
		c2.9-0.5,8.1-1.7,9-1.8s1.3,0.7,0.8,1.6c-0.7,1.3-1.4,2.7-2.1,4c-0.3,0.5-0.6,1.1-0.8,1.7c-0.7,1.9-0.7,2.1,1.3,2.5
		c4.5,0.9,9,1.7,13.6,2.6c0-0.2,10.6,1.3,15.8,2.3c2.2,0.4,4.3,0.7,6.5,1c2.5,0.3,5,0.8,7.5,0.8c3,0,5.9,0.6,8.9,0.9
		c0.4,0,1.2-0.6,1.2-0.8c0-1.2-0.3-2.4-0.4-3.6c-0.1-0.7-0.3-1.5-0.3-2.2c0-1.4,0.7-1.9,2.1-2c1.3-0.1,2.2,0.2,2.4,1.6
		c0.1,0.7,0.2,1.5,0.3,2.2c0.3,1.4,0.4,2.5,1.6,1.8c2.5-1.6,5.9-3.8,8.3-5.5c4-2.9,8-5.8,12-8.7c3.2-2.4,6.4-4.9,9.7-7.3
		c2.1-1.6,4.2-3.1,6.2-4.8c4.5-3.7,9-7.4,13.3-11.3c4.3-3.9,8.5-8,12.6-12.1c2-2,3.7-4.2,5.4-6.4c1.3-1.6,2.8-3,5-3.4
		c0.4-0.1,0.8,0.1,1.2,0.1c-0.1,0.4-0.2,0.8-0.4,1c-3.4,3.5-6.7,7-10.2,10.5c-2.7,2.7-5.4,5.5-8.2,8.1c-3.9,3.6-7.8,7.1-11.8,10.6
		c-1.8,1.6-3.6,3.2-5.5,4.7c-6.2,4.8-12.5,9.5-18.7,14.3c-3.6,2.8-7.1,5.6-10.7,8.4c-1,0.8-2.2,1.4-3.1,2.3c-1.5,1.3-4,2.6-5.1,4.2
		c-0.6,0.8,0.9,5.7,1.1,6.8c0.2,1.2-0.5,2-1.5,2.4s-1.9,0.4-2.2-0.9c-0.2-0.9-0.5-1.8-0.9-2.7c-0.1-0.4-0.4-0.7-0.5-1
		c-0.3,0.2-0.7,0.4-0.9,0.7c-1.7,2.3-3.4,4.7-5.1,7c-2.5,3.3-5.1,6.6-7.6,10c-1,1.4-2,2.8-3,4.2c-2.2,3-4.2,6.1-6.6,9
		s-4.9,5.7-7.5,8.5c-2.9,3.2-6,6.2-8.9,9.4c-3.8,4.3-7.4,8.9-11.1,13.2c-1.4,1.7-3.1,3.1-4.6,4.7c-3.3,3.2-6.7,6.4-9.8,9.7
		c-3.2,3.4-6.2,7.1-9.4,10.6c-3,3.3-22.9,25.6-22.9,25.6c-1.3,3.1-0.9,2.1-1.5,6.4c-0.7,4.6-1.3,5.5-5.9,5.2c-1.6-0.1-3.3,0-5-0.1
		c-2.1-0.1-2.8-0.9-2.3-2.9c2-8.6,4-17.2,6.1-25.8c1.1-4.6,2.4-9.2,3.5-13.8c0.1-0.3,0-0.6,0-0.9c-0.2,0.1-0.5,0.2-0.7,0.3
		c-6.1,5.5-13.6,8.7-20.6,12.7C337.7,273.2,321.3,279.7,309.6,282.9L309.6,282.9z M216.6,253.8c0.7-0.4,1.4-0.8,2.1-1.4
		c1.4-1.2,30.2-20.1,33.4-22c3.7-2.2,7.4-4.4,11.1-6.7c3.2-2,6.3-4.1,9.4-6.2c1.9-1.3,1.9-1.6,0-2.8c-2.8-1.9-5.8-3.6-8.5-5.7
		c-3.7-3-7.3-6.3-10.9-9.4c-0.9-0.8-1.9-1.6-2.9-2.4c-2.8-2.1-5.7-4.1-8.4-6.3c-3.1-2.5-6.2-5-9.2-7.5c-3.9-3.2-7.8-6.3-11.6-9.6
		c-3.5-3-6.8-6.4-10.3-9.4c-5.5-4.7-11.1-9.1-16.6-13.8c-1.5-1.3-2.9-1.4-4.7-0.8c-5,1.6,2.6-0.6-15.1,4.7s-44.7,15.3-51.9,17.1
		c-3.1,0.8-6,1.9-8.5,3.9c-0.9,0.7-1.8,1.4-1,2.7c2.2,3.8,4.3,7.6,6.5,11.4c2.5,4.3,4.9,8.7,7.5,13c0.9,1.5,2.1,2.9,3.4,4
		c1.4,1.2,26.2,15.7,31.7,20c0.3,0.3,13.4-1.1,19.3-2.3c6.9-1.4,13.5-3.8,19.7-7.1c1.5-0.8,3.1-1.9,4.8-1.8s1.5,1.3,1,2.2
		s-17.3,9.2-24.9,10.1c-4.1,0.9-8.4,1.3-12.6,1.9c-0.4,0.1-0.9,0.3-1.3,0.4c0.3,0.3,11.4,7,13.9,8.4c4.9,2.6,9.8,5.2,14.7,7.8
		c1.7,0.9,12.5,5.1,16.1,6.4C214.1,253,215.3,253.3,216.6,253.8L216.6,253.8z M277.6,199.8c-0.1-0.2,0.8,0.9,2,2.6
		c1.1,1.6,3.3,4.5,3.3,5.3c-0.1,0.8-1.7,1.6-2.2,1.4c-0.8-0.2-1.5-0.9-2-1.5c-1.7-2.2-6.5-7.8-6.5-7.8s-3.5-0.4-5.3-0.6
		c-3.2-0.4-6.4-0.7-9.6-1.1c-0.3,0-0.5,0-0.8-0.1c0.1,0.2,0.2,0.5,0.4,0.6c1.8,1.8,3.6,3.6,5.4,5.3c1.1,1.1,2.3,2.1,3.6,3
		c2,1.4,4.1,2.7,6.2,4c1.9,1.2,3.7,2.5,5.7,3.3c1.2,0.5,1.7,1.1,1.8,2.3c0.1,2.5,0.3,5.1,0.4,7.6s0.2,4.7-2.6,6.5
		c-4.5,2.9-13.8,9.6-13.8,9.6s0.5,0.6,1.5,1.2c2.7,1.5,4.6,2.7,7.2,4.3c3.8,2.2,7.5,4.5,11.4,6.6c3.6,2,7.3,3.8,10.9,5.8
		c2.5,1.4,5,2.2,7.9,1.7c1.9-0.4,4-0.2,6-0.4c4.7-0.5,9.4-0.9,14.1-1.7c4.5-0.8,9-1.9,13.5-2.9c3.1-0.7,6.3-1.5,9.3-2.5
		c4.2-1.4,8.3-3,12.4-4.5c2.9-1,5.8-2,8.7-2.9c1.6-0.5,3.2-0.8,4.7-1.5c0.8-0.4,1.6-1.2,1.9-2c1-2.3,1.7-4.6,2.5-7
		c2-6.5,3.8-13.1,6-19.5c1.7-4.8,4-9.5,6-14.2c0.2-0.6,0.5-1.1,0.7-1.7c2.6-6.4,5.3-12.8,7.9-19.3c0.3-0.8,0.6-1.6,1-2.4
		c-0.9,0.2-1.8,0.4-2.7,0.6c-0.1,0-0.1,0.1-0.2,0.1c-3.1,1.1-6.3,2.3-9.4,3.4c-2.5,0.9-4.9,1.7-7.4,2.4c-3.7,1.2-7.4,2.5-11.2,3.5
		c-5,1.3-10.1,2.3-15.3,3.4c-6.1,1.2-12.2,2.4-18.4,3.4c-7.1,1.1-14.2,1.8-21.4,2.8C307.4,197.6,277.7,200,277.6,199.8L277.6,199.8z
		 M266.8,289.6c0.2,0-1.1-3-1.5-3.9c-1.2-3.3-2.5-6.5-3.6-9.8c-0.7-2.3-3.9-11.7-3.9-11.7s-18.1-1.2-24.9-3
		c-6.6-1.7-13.2-3.5-19.6-6c-4.8-1.9-9.8-3.6-14.5-5.8c-5.5-2.6-10.8-5.6-16.2-8.5c-3.2-1.7-49.1-29.4-54-32.7
		c-3.9-2.6-8-5.1-13.9-9.5c-3.6-2.6-6.9-5.6-10.2-8.7c-3.5-3.3-6.7-6.8-10-10.2c-1.7-1.8-3.4-3.5-5.2-5.2c-0.2-0.2-0.6-0.3-0.9-0.4
		c0,0.3-0.2,0.6-0.1,0.9c1.4,3.5,2.7,7.1,4.2,10.5c1.5,3.5,3.3,6.8,4.8,10.2c1.9,4.5,14.3,22,17.9,26.7c3.3,4.2,6.3,8.5,9.8,12.5
		c2.4,2.9,5.5,5.2,8,8c4,4.5,8.8,8,13.5,11.7c5.5,4.3,11.7,7.7,17.7,11.2c4.6,2.7,9.2,5.5,14,7.8c5.8,2.7,11.9,5,17.9,7.3
		c3.2,1.2,6.6,1.8,9.9,2.6c5.2,1.3,10.3,2.8,15.6,3.8c7.1,1.3,14.2,2.3,21.4,3.3C263.1,291.5,265,289.9,266.8,289.6L266.8,289.6z
		 M110.2,192.2c-0.1-0.7-0.1-1.1-0.2-1.4c-1-2.1-2.1-4.2-2.9-6.4c-0.9-2.6-2-4.6,1.1-7.7s0.1-0.1,0.1-0.2c1.6-1.3,2.9-3,4.7-3.9
		c8.3-4.2,32.1-11.4,34.6-12.4c3.4-1.4,6.8-3,10.3-4.1c5.4-1.8,10.9-3.3,16.3-5c1.4-0.4,1.5-0.8,0.5-1.7c-1.6-1.6-3.3-3.1-5-4.6
		c-5.6-5-9.5-11.3-13.6-17.5c-3.5-5.2-7-10.5-10.4-15.8c-0.5-0.7-1-0.7-1.5-0.3c-1.1,0.8-2.1,1.7-3.2,2.6
		c-4.5,3.7-8.9,7.5-13.5,11.2c-6.2,5-12.3,10.1-18.5,15.1c-3.7,3-7.5,5.8-11.1,8.9c-4.8,4.1-9.5,8.3-14.3,12.4
		c-0.9,0.7-0.9,1.3-0.5,2.3c1.1,3.3,11.1,12.3,13.4,14.7s9.3,10.1,10.7,11.4C107.9,190.5,108.9,191.2,110.2,192.2L110.2,192.2z
		 M374.7,279.6v1.4c0.4-0.3,0.8-0.6,1.2-1c1.5-1.8,2.8-3.7,4.3-5.4c3.4-4,6.7-8,10.2-11.9c2.4-2.7,5-5.3,7.4-8
		c2.2-2.4,4.3-4.8,6.6-7.1c4.3-4.3,8.7-8.4,12.8-12.8s7.9-9.2,11.9-13.7c3.1-3.5,6.4-6.8,9.6-10.3c2.9-3.2,5.9-6.4,8.5-9.8
		c3.8-4.9,7.3-9.9,10.9-14.9c2.7-3.8,5.4-7.6,8.1-11.4c0.2-0.3,0.3-0.8,0.4-1.2c-0.4,0.2-0.9,0.3-1.2,0.5c-3.5,2.7-7,5.5-10.5,8.2
		c-2.8,2.2-5.7,4.2-8.6,6.4c-3.9,3-7.7,6-11.6,8.9c-3.1,2.4-6.1,4.8-9.3,7.2c-4.2,3.1-8.6,6-12.6,9.2c-3.6,2.9-6.7,6.3-10.1,9.4
		c-3.6,3.3-7.3,6.4-10.8,9.9c-2.6,2.5-5.4,5.1-7.1,8.2c-1.9,3.3-2.8,7.1-3.8,10.8C380.1,255.6,374.6,279.6,374.7,279.6L374.7,279.6z
		 M275.7,264.8c-4,0-7.8,0-11.7,0c-1.3,0-2-0.5-1.7,0.8c0.3,1.4,0.8,3.7,1.2,5c1.8,5.4,3.1,9.1,5,14.4c0.4,1.1,1.9,4.2,1.9,4.2
		s18-3.5,30.1-6.6c10.8-2.7,27.1-8.5,39.3-14.2c8.7-4,15.3-8.5,16.9-9.3c3.6-1.9,7-4.2,9.9-7.3c1-1.1,1.9-2.3,2.8-3.5
		c0.1-0.2,0.1-0.5,0.2-0.7c-0.2,0-0.5,0-0.8,0.1c-1.9,0.6-3.9,1.2-5.8,1.8c-4.3,1.3-38.9,11.2-44.5,12
		C313.7,262.2,285.2,265.5,275.7,264.8L275.7,264.8z M459.9,175.6c-0.6,0-1.1-0.2-1.5-0.1c-7.2,1.3-14.4,2.4-21.5,4.6
		c-7.2,2.3-14.8,3.7-22.2,5.4c-3.1,0.7-6.3,1.4-9.5,2c-1.9,0.4-3.4,1.3-4,3.1c-1.9,5.3-4,10.5-5.7,15.9c-2.8,8.8-5.2,17.8-7.8,26.7
		c-0.1,0.3,0,0.6,0,0.9c0.3-0.2,0.6-0.3,0.8-0.5c1.3-1.2,2.5-2.5,3.8-3.7c1.6-1.4,3.3-2.7,4.9-4.1c4.1-3.7,8.1-7.5,12.2-11.3
		c1.2-1.1,2.3-2.2,3.6-3.1c3.2-2.4,6.6-4.7,9.8-7.1c2.8-2,5.5-4.2,8.2-6.2c4-3,7.9-6.1,11.9-9.1c2.5-1.9,5-3.9,7.4-5.8
		c2.9-2.2,5.8-4.4,8.6-6.6C459.3,176.4,459.5,176.1,459.9,175.6L459.9,175.6z M58.4,82.9c0.3,0.4,2.5,1.7,2.9,2
		c4.7,3.4,9.5,6.7,14.3,10.1c1.3,0.9,2.8,1.7,4.3,2.4c2.9,1.6,5.9,2.9,8.7,4.6c5,3,9.8,6.3,14.7,9.4c4.4,2.8,8.9,5.5,13.2,8.4
		c1.1,0.7,1.9,0.7,2.9-0.2c4.8-4,17.8-14.2,19.4-15.4c1.4-0.9,2.7-1.9,4.1-2.8c0.7-0.5,0.8-0.9-0.2-1.1s-10.9-2.8-14.2-3.6
		c-5.3-1.2-10.7-2.2-16.1-3.3c-3.3-0.7-26.6-5-34.9-6.9c-4.6-1.1-18.9-4.4-18.9-4.4S58.5,82.9,58.4,82.9L58.4,82.9z M54.5,83.1
		c-0.2,0.1-0.5,0.2-0.4,0.3c0.1,0.4,0.3,0.8,0.5,1.1c3.8,5.1,7.7,10.1,11.5,15.3c2.6,3.5,4.9,7.2,7.5,10.8
		c4.5,6.1,9.1,12.2,13.7,18.3c2.5,3.3,5.1,6.7,7.6,10c0.6,0.7,1.1,0.9,1.9,0.3c1.6-1.3,3.2-2.6,4.8-3.8c3-2.4,6-4.8,8.9-7.2
		c1.6-1.3,3.2-2.7,4.9-4.1c1-0.9,1-1.5-0.3-2.2c-1.6-0.8-3.1-1.8-4.6-2.8c-1.8-1.2-3.5-2.6-5.4-3.7c-3.8-2.4-7.7-4.8-11.5-7.1
		c-4.1-2.5-8.2-5-12.2-7.5c-3.2-2-6.5-3.9-9.6-5.9c-2.4-1.6-4.6-3.4-7-5c-2.2-1.5-4.5-2.8-6.8-4.3C56.8,84.6,55.7,83.9,54.5,83.1
		L54.5,83.1z M52.4,86.7c0.1,0.4,0.5,2.3,0.6,2.9c2.2,7.3,4.2,14.6,6.5,21.9c1.9,6,3.9,12,6,17.9c1.5,4.4,3.1,8.7,4.6,13
		c0.8,2.5,1.4,5,2.3,7.4c0.6,1.8,1.5,3.5,2.4,5.2c0.4,0.8,1,0.8,1.7,0.3c2.3-1.8,13.3-11.2,15.3-12.7c1.9-1.4,1.9-2.4,0.5-4.3
		c-2.6-3.4-5.3-6.8-7.9-10.3c-1.5-2.1-2.8-4.4-4.4-6.5c-2.6-3.4-5.4-6.7-7.9-10.2c-2.4-3.3-4.6-6.8-7-10.1c-2.1-2.9-4.3-5.7-6.5-8.5
		c-1.5-1.9-5.4-6.8-5.4-6.8S52.5,86,52.4,86.7L52.4,86.7z M364.8,294.9c1.6,0.1,2.8-0.3,3.3-1.6c0.7-1.8,4.1-13.1,4.7-17.1
		c1.2-7.1,3.3-14.1,5.1-21.2c1.1-4.4,2.1-9,3.8-13.2c1.3-3.2,3-6.1,3.9-9.5c1.2-4.4,5.7-19.9,6.8-23.3c1.4-4.5,14.2-37.9,16-42.5
		c0.5-1.4,1.8-6.4,2.2-7.3c0.7-1.4,1.6-2.7,2.3-4.1c0.2-0.4,0.9-1.3,0.2-1.4s-3.1,0.4-3.9,0.7c-1.5,0.4-2.4,1.2-2.8,2.7
		c-0.4,1.8-0.8,3.6-1.3,5.4c-1.1,3.7-1.9,7.5-3.4,11c-2.9,6.8-6.7,13.2-9,20.3c-1,3.1-11,28.6-12.9,34.5c0,0.1-0.1,0.3-0.1,0.4
		c-2.5,7.6-4.9,15.1-7.3,22.7c-0.3,1-2,8.2-2.8,10.7c-1,3.6-6.5,23.4-7.9,29.8c-0.4,1.8-0.3,2.1,1.6,2.6
		C363.9,294.8,364.5,294.9,364.8,294.9L364.8,294.9z M449.1,175.1c2-0.4,4.1-0.7,6.1-1.2c3.1-0.7,6.1-1.4,9.2-2.2
		c0.3-0.1,0.5-0.4,0.8-0.6c-0.3-0.2-0.6-0.5-0.9-0.5c-2.4-0.4-4.9-0.7-7.3-1.1c-1.4-0.2-2.8-0.6-4.2-0.8c-3.3-0.5-6.7-0.9-10-1.4
		c-8.6-1.3-17.2-2.5-25.8-3.8c-1.3-0.2-3-0.9-3.9-0.4c-1,0.6-1.3,2.4-1.9,3.7c-2.3,5.5-4.5,11-6.8,16.6c-0.7,1.6-0.4,1.9,1.1,1.6
		c3.4-0.6,6.7-1.4,10.1-2.1c3.6-0.7,16.1-3.4,18.5-4S448.2,175.2,449.1,175.1L449.1,175.1z M60.3,178.3c0.5-0.3,0.8-0.5,1.1-0.7
		c3.7-3.3,7.4-6.6,11-9.9c2.1-1.9,4-4,6.1-5.8c2.3-2,4.9-3.8,7.2-5.7c3.6-3,7-6.5,10.9-9.1c4.5-3.1,8.4-6.9,12.6-10.2
		c2-1.5,4-3.1,6-4.7c3.1-2.5,6.2-5,9.3-7.6c4.8-4,9.3-8.3,14.2-12.2c3.8-3,7.9-5.6,11.8-8.5c5.5-4.1,10.8-8.4,16.3-12.6
		c0.7-0.5,1.5-1.2,0.8-2c-0.6-0.6-1.7-1.1-2.4-0.9c-1,0.2-2,0.9-2.8,1.6c-3.8,3.5-7.7,7-12.3,9.6c-5.8,3.4-11.3,7.2-16.5,11.6
		c-5.3,4.5-10.8,8.7-16.1,13.2c-3.9,3.3-7.5,6.8-11.4,10.1c-2.4,2-5.1,3.7-7.6,5.6c-2.1,1.5-4.3,3-6.3,4.7
		c-4.3,3.6-8.4,7.2-12.6,10.9c-2.4,2.1-4.8,4.1-7.2,6.2c-1.3,1.1-2.4,2.4-3.6,3.6c-3.2,3-6.5,5.9-9.7,8.9c-0.4,0.4-0.5,1.4-0.3,2
		C59,176.9,59.7,177.6,60.3,178.3z M277.3,224.1c-0.2-1.7-0.3-3.3-0.5-4.9c0-0.1-0.6-0.4-0.8-0.3c-1.3,0.6-2.7,1.1-3.9,1.9
		c-3.4,2.1-6.8,4.4-10.2,6.5c-5.1,3.1-34,21.3-37.9,24.1c-0.3,0.2-0.5,0.4-0.8,0.7c-1,0.9-0.9,1.7,0.3,2.2c3,1.1,6,2.2,9.1,3.2
		c0.3,0.1,0.9,0,1.2-0.1c1.7-1.1,3.5-2.2,5.2-3.4c0.9-0.6,0.8-1.2-0.1-1.7c-0.8-0.4-1.7-0.7-2.3-1.3c-0.5-0.5-0.8-1.5-0.6-2.2
		c0.2-1,1.1-0.8,1.9-0.5c1.1,0.6,2.2,1.3,3.4,1.8c0.6,0.3,1.5,0.6,2,0.3c4.3-2.6,8.5-5.4,12.7-8.1c1.5-1,1.4-0.9,0-1.9
		c-0.5-0.4-1.1-1.2-1-1.7s0.4-1.3,1.1-1.5c0.5-0.2,1.9,0.2,2.3,0.6c2.8,1.3,2.8,1.3,3.9,0.6c0.5-0.6,3.4-2.6,4.1-3.1
		c2.9-2.1,5.8-4.2,8.7-6.2C276.6,228,277.2,226.1,277.3,224.1L277.3,224.1z M290.7,261.1c0.3,0,0.6-0.3,1-0.5
		c-0.3-0.2-0.5-0.4-0.8-0.6c-1.4-0.7-2.8-1.4-4.2-2.2c-4.2-2.3-8.3-4.6-12.4-6.9c-4.3-2.5-14.4-7.8-14.4-7.8s-9.5,5.9-11.8,7.4
		c-2,1.2-2.5,2-2.5,2s11.8,5.9,14.4,6.6c2.3,0.7,2.2,2.2,2.2,2.2S286.5,261.4,290.7,261.1L290.7,261.1z M268.7,196.4
		c-0.3-0.5-6.1-5-8.6-6.6c-3.3-2-6.7-4-10.1-6c-4.2-2.5-19.9-8.4-21.5-9c-0.2-0.1-0.6,0.1-0.9,0.2c0.1,0.2,14,11.9,20.5,17
		c0.8,0.7,3,1.9,4.1,2.2C254.3,194.7,268.2,196.5,268.7,196.4L268.7,196.4z M110.5,179.5c-0.2,0.2-0.3,0.4-0.4,0.5
		c-0.8,1.1-0.9,2.2-0.2,3.4c1.9,3.7,3.8,7.5,5.8,11.1c1.5,2.8,3.2,5.4,6.4,6.6c0.3,0.1,0.7,0.2,1.1,0.2c0-0.4,0-0.8-0.2-1.1
		c-0.7-1.4-1.3-2.7-2.1-4c-2.7-4.6-5.5-9.2-8.2-13.8c-0.5-0.8-1-1.6-1.6-2.4C110.8,179.9,110.7,179.7,110.5,179.5L110.5,179.5z
		 M249.2,259.6c-0.1,0,1.7,0.4,1.9,0.3c-0.2-0.2-4.6-2.6-5.8-3.4c-2.6-1.8-2.9-1.8-5.4,0.1c-0.5,0.4-0.9,0.9-1.4,1.4
		c0.6,0,2.9,0.6,3.5,0.7L249.2,259.6z"/>
</g>
<path class="st2" d="M459.9,175.6c-0.4,0.5-0.6,0.8-0.9,1c-2.9,2.2-5.8,4.4-8.6,6.6c-2.5,1.9-4.9,3.9-7.4,5.8
	c-4,3.1-7.9,6.1-11.9,9.1c-2.7,2.1-5.4,4.2-8.2,6.2c-3.3,2.4-6.6,4.7-9.8,7.1c-1.3,0.9-2.4,2-3.6,3.1c-4.1,3.8-8.1,7.6-12.2,11.3
	c-1.6,1.4-3.3,2.7-4.9,4.1c-1.3,1.2-2.5,2.5-3.8,3.7c-0.2,0.2-0.6,0.3-0.8,0.5c0-0.3-0.1-0.7,0-0.9c2.6-8.9,5.1-17.8,7.8-26.7
	c1.7-5.4,3.8-10.6,5.7-15.9c0.7-1.9,2.1-2.8,4-3.1c3.2-0.6,6.3-1.3,9.5-2c7.4-1.7,14.9-3.1,22.2-5.4c7.1-2.2,14.3-3.4,21.5-4.6
	C458.8,175.5,459.3,175.6,459.9,175.6L459.9,175.6z"/>
<path class="st2" d="M60.3,178.3c-0.6-0.7-1.3-1.4-1.7-2.2c-0.2-0.6-0.1-1.6,0.3-2c3.2-3,6.5-5.9,9.7-8.9c1.3-1.1,2.4-2.5,3.6-3.6
	c2.4-2.1,4.8-4.1,7.2-6.2c4.2-3.6,8.4-7.3,12.6-10.9c2-1.7,4.2-3.1,6.3-4.7c2.5-1.9,5.2-3.5,7.6-5.6c3.9-3.3,7.5-6.8,11.4-10.1
	c5.3-4.5,10.8-8.7,16.1-13.2c5.1-4.4,10.7-8.2,16.5-11.6c4.6-2.6,8.4-6.1,12.3-9.6c0.8-0.7,1.8-1.4,2.8-1.6c0.8-0.1,1.9,0.3,2.4,0.9
	c0.7,0.8-0.1,1.5-0.8,2c-5.4,4.2-10.8,8.5-16.3,12.6c-3.9,2.9-8,5.5-11.8,8.5c-4.9,3.9-9.5,8.2-14.2,12.2c-3,2.6-6.2,5.1-9.3,7.6
	c-2,1.6-4,3.1-6,4.7c-4.3,3.3-8.2,7.1-12.6,10.2c-3.9,2.7-7.2,6.1-10.9,9.1c-2.4,2-4.9,3.7-7.2,5.7c-2.1,1.8-4,3.9-6.1,5.8
	c-3.6,3.3-7.3,6.6-11,9.9C61.2,177.8,60.8,178,60.3,178.3L60.3,178.3z"/>
<path class="st2" d="M110.5,179.5c0.2,0.3,0.4,0.5,0.5,0.7c0.5,0.8,1.1,1.6,1.6,2.4c2.8,4.6,5.5,9.2,8.2,13.8c0.8,1.3,1.4,2.7,2.1,4
	c0.2,0.3,0.1,0.7,0.2,1.1c-0.4-0.1-0.8-0.1-1.1-0.2c-3.1-1.2-4.9-3.9-6.4-6.6c-2-3.7-3.8-7.4-5.8-11.1c-0.6-1.2-0.5-2.3,0.2-3.4
	C110.1,179.8,110.3,179.7,110.5,179.5L110.5,179.5z"/>
<path class="st1" d="M170.9,207.5c-1.6,0.7-5-3.2-4.6-4.6c0-0.2,0.1-1.5,1.4-0.6c1.2,0.9,2.3,2.9,4.6,1.9c0.4-0.2,2.5-1.1,2.9-1.3
	c3.1-1.9,6.1-3.8,9.3-5.7c1.5-0.9,3-1.7,4.5-2.5c3.1-1.6,6.3-3.2,9.5-4.9c0.6-0.3,1.1-0.8,1.6-1.3c0.7-0.8,1-1.5-0.1-2.4
	c-0.5-0.4-1.6-1.4-0.6-2.1c0.9-0.7,1.7,0,2.2,0.4c1.2,0.9,2.1,2.1,3.2,3.2c0.6,0.7,0.3,1.2-0.4,1.7c-5.2,3.4-10.6,6.4-16.2,9
	c-4,1.9-7.7,4.5-11.6,6.6C174.4,206,172.6,206.8,170.9,207.5L170.9,207.5z"/>
<path class="st1" d="M155.2,186.5c-0.3-1.4,0.7-2.7,1.9-2.9c0.7-0.1,2.1,1.7,1.9,2.6c-0.2,1.3-1.4,1.8-2.4,1.8
	C156.1,187.9,155.6,187.9,155.2,186.5z"/>
<path class="st1" d="M187.2,173.7c0.6,3-3.7,2-3.7,0.5c0-1.1,0.5-2.4,1.8-2.6S187,172.5,187.2,173.7L187.2,173.7z"/>
</svg>
