<?xml version="1.0" standalone="no"?><!DOCTYPE svg PUBLIC "-//W3C//DTD SVG 1.1//EN" "http://www.w3.org/Graphics/SVG/1.1/DTD/svg11.dtd"><svg t="1727082973063" class="icon" viewBox="0 0 1024 1024" version="1.1" xmlns="http://www.w3.org/2000/svg" p-id="9096" xmlns:xlink="http://www.w3.org/1999/xlink" width="81" height="81"><path d="M80.554667 370.773333l47.018666-164.778666 9.472-33.194667q2.901333-10.069333 35.328-34.133333A51.2 51.2 0 0 1 221.354667 102.4h625.493333a51.2 51.2 0 0 1 49.152 36.181333l11.861333 42.069334c3.157333 11.264 37.12 22.698667 39.253334 30.293333Q964.266667 273.066667 1002.752 384H76.8z" fill="#B3D9FF" p-id="9097"></path><path d="M51.2 435.2l947.2 0 0 153.6-947.2 0 0-153.6Z" fill="#96CAFF" p-id="9098"></path><path d="M51.2 614.4l947.2 0 0 153.6-947.2 0 0-153.6Z" fill="#96CAFF" p-id="9099"></path><path d="M51.2 793.6l947.2 0 0 153.6-947.2 0 0-153.6Z" fill="#96CAFF" p-id="9100"></path><path d="M691.2 486.4h25.6v25.6h-25.6zM460.8 486.4h25.6v25.6h-25.6zM153.6 486.4h25.6v25.6h-25.6zM691.2 665.6h25.6v25.6h-25.6zM460.8 665.6h25.6v25.6h-25.6zM153.6 665.6h25.6v25.6h-25.6zM691.2 844.8h25.6v25.6h-25.6zM460.8 844.8h25.6v25.6h-25.6zM153.6 844.8h25.6v25.6h-25.6zM768 486.4h25.6v25.6h-25.6zM537.6 486.4h25.6v25.6h-25.6zM768 665.6h25.6v25.6h-25.6zM537.6 665.6h25.6v25.6h-25.6zM768 844.8h25.6v25.6h-25.6zM537.6 844.8h25.6v25.6h-25.6zM844.8 486.4h25.6v25.6h-25.6zM614.4 486.4h25.6v25.6h-25.6zM844.8 665.6h25.6v25.6h-25.6zM614.4 665.6h25.6v25.6h-25.6zM844.8 844.8h25.6v25.6h-25.6zM614.4 844.8h25.6v25.6h-25.6z" fill="#175AA7" p-id="9101"></path><path d="M51.2 409.6a25.6 25.6 0 0 0-25.6 25.6v102.4a25.6 25.6 0 0 0 25.6 25.6h921.6a25.6 25.6 0 0 0 25.6-25.6V435.2a25.6 25.6 0 0 0-25.6-25.6z m0-25.6h921.6a51.2 51.2 0 0 1 51.2 51.2v102.4a51.2 51.2 0 0 1-51.2 51.2H51.2a51.2 51.2 0 0 1-51.2-51.2V435.2a51.2 51.2 0 0 1 51.2-51.2z" fill="#175AA7" p-id="9102"></path><path d="M851.882667 174.336c-18.517333-13.226667-30.549333-25.6-36.864-46.336h-25.173334L768 76.8h46.933333a51.2 51.2 0 0 1 48.896 36.181333c5.034667 16.213333 34.133333 27.648 36.181334 34.133334l71.338666 232.448-49.578666 7.338666c-25.002667-81.237333-41.130667-128.682667-60.672-192.085333l-5.546667-18.090667z" fill="#96CAFF" p-id="9103"></path><path d="M51.2 588.8a25.6 25.6 0 0 0-25.6 25.6v102.4a25.6 25.6 0 0 0 25.6 25.6h921.6a25.6 25.6 0 0 0 25.6-25.6V614.4a25.6 25.6 0 0 0-25.6-25.6z m0-25.6h921.6a51.2 51.2 0 0 1 51.2 51.2v102.4a51.2 51.2 0 0 1-51.2 51.2H51.2a51.2 51.2 0 0 1-51.2-51.2V614.4a51.2 51.2 0 0 1 51.2-51.2z" fill="#175AA7" p-id="9104"></path><path d="M51.2 768a25.6 25.6 0 0 0-25.6 25.6v102.4a25.6 25.6 0 0 0 25.6 25.6h921.6a25.6 25.6 0 0 0 25.6-25.6V793.6a25.6 25.6 0 0 0-25.6-25.6z m0-25.6h921.6a51.2 51.2 0 0 1 51.2 51.2v102.4a51.2 51.2 0 0 1-51.2 51.2H51.2a51.2 51.2 0 0 1-51.2-51.2V793.6a51.2 51.2 0 0 1 51.2-51.2zM488.277333 153.6L486.4 332.8h51.2l-1.877333-179.2z m-96.938666 42.666667L384 332.8h51.2l4.437333-136.533333z m193.706666 21.674666L588.8 332.8h51.2l-6.229333-115.285333z" fill="#175AA7" p-id="9105"></path><path d="M33.28 384l967.850667-7.338667 4.693333 15.104-13.312 17.834667-9.728-5.802667-76.8-248.832c0 0.853333-9.898667-8.533333-26.88-21.333333l-6.826667-5.034667-2.474666-8.106666A25.6 25.6 0 0 0 845.397333 102.4H153.002667a25.6 25.6 0 0 0-24.490667 18.090667l-2.218667 7.082666-5.632 4.864a269.738667 269.738667 0 0 0-27.989333 26.794667L85.333333 186.453333 36.693333 371.029333zM0 409.6l68.266667-256.938667q2.986667-11.264 36.096-39.68A51.2 51.2 0 0 1 153.002667 76.8h692.394666a51.2 51.2 0 0 1 48.896 36.181333q33.109333 24.32 36.181334 34.133334L1011.370667 409.6z" fill="#175AA7" p-id="9106"></path></svg>