<?xml version="1.0" standalone="no"?><!DOCTYPE svg PUBLIC "-//W3C//DTD SVG 1.1//EN" "http://www.w3.org/Graphics/SVG/1.1/DTD/svg11.dtd"><svg t="1605660236759" class="icon" viewBox="0 0 1024 1024" version="1.1" xmlns="http://www.w3.org/2000/svg" p-id="5002" xmlns:xlink="http://www.w3.org/1999/xlink" width="200" height="200"><defs><style type="text/css"></style></defs><path d="M571.1 254v527.7h52.3l19 66.2 92-66.2h129.4V254H571.1z m233.3 467.8h-60.8L666 781l-16.9-59.2h-16v-409h171.3v409zM540.7 552.6s0-56.4-27.8-59.5c-27.9-3.1-114.5 0-114.5 0V317.5h128.4s-1.5-58-26.3-58H291.6l32.5-95.6s-52.6 3.1-71.2 36c-18.5 33-78.9 202.2-78.9 202.2s20.1 9.4 54.2-15.7c34-25.1 44.9-69 44.9-69l61.9-3.1 1.5 178.7s-106.8-1.6-128.4 0c-21.7 1.6-34 59.5-34 59.5h162.5s-13.9 98.7-55.7 170.8C239 795.5 160.1 851.9 160.1 851.9s57.2 23.5 112.9-9.4 96.8-177.7 96.8-177.7l130.7 162s11.9-77.1-2.1-98.9c-14-21.8-90.4-109.3-90.4-109.3l-33.3 29.8 23.7-95.8h142.3z" fill="#49C0FB" p-id="5003"></path></svg>