<svg
    xmlns="http://www.w3.org/2000/svg"
    viewBox="0 0 16 16">
  <g
      transform="scale(0.06)"
      fill="#000">
    <path
        d="M7 18.848h22v146h87v18H7v-164z"/>
    <path
        d="M184.597 58.452c-22.5-.3-45 14-52 35.7-10 25-5.4 56.4 14.2 75.5 19 15.8 47.6 17 69 5.8 14.7-7.8 24-23.3 26-39.6 2.6-17 1.3-35.6-7-51-9.8-16.4-29-27-48-26.3l-2.2-.3zm2 17.4c16.5 0 31.3 12.6 34 28.8 5 18.3 2 40.7-13 53.6-14 11.4-36.5 9.8-48-4.3-14-15-14-38-6.8-56 5-13 18.3-22.3 32.3-22h1.8z"/>
    <path
        d="M7 206.152h236v25H7v-25z"/>
  </g>
</svg>
