<?xml version="1.0" standalone="no"?><!DOCTYPE svg PUBLIC "-//W3C//DTD SVG 1.1//EN" "http://www.w3.org/Graphics/SVG/1.1/DTD/svg11.dtd"><svg t="1524299599613" class="icon" style="" viewBox="0 0 1024 1024" version="1.1" xmlns="http://www.w3.org/2000/svg" p-id="1896" xmlns:xlink="http://www.w3.org/1999/xlink" width="200" height="200"><defs><style type="text/css"></style></defs><path d="M512 78.933333C500.48 78.933333 488.533333 81.92 478.72 87.466667L161.28 270.933333C140.8 282.88 128 305.066667 128 328.96L128 695.04C128 718.933333 140.8 741.12 161.28 753.066667L244.48 800.853333C285.013333 820.48 298.666667 820.906667 317.44 820.906667 377.173333 820.906667 411.733333 784.64 411.733333 721.493333L411.733333 360.106667C411.733333 354.986667 407.466667 350.72 402.346667 350.72L362.666667 350.72C357.12 350.72 352.853333 354.986667 352.853333 360.106667L352.853333 721.493333C352.853333 749.653333 323.84 777.386667 277.333333 753.92L189.866667 704C186.88 701.866667 185.173333 698.453333 185.173333 695.04L185.173333 328.96C185.173333 325.12 186.88 321.706667 189.866667 320L507.306667 136.96C509.866667 135.253333 514.133333 135.253333 516.693333 136.96L834.133333 320C837.12 321.706667 838.826667 325.12 838.826667 328.96L838.826667 695.04C838.826667 698.453333 837.12 701.866667 834.133333 704L516.693333 887.04C514.133333 888.746667 509.866667 888.746667 506.88 887.04L426.666667 838.4C423.253333 837.12 419.84 836.693333 417.706667 837.973333 395.093333 850.773333 390.826667 853.333333 369.92 859.733333 364.8 861.44 356.693333 864.426667 372.906667 873.386667L478.72 936.106667C488.96 942.08 500.053333 945.066667 512 945.066667 523.946667 945.066667 535.04 942.08 545.28 936.106667L862.72 753.066667C883.2 741.12 896 718.933333 896 695.04L896 328.96C896 305.066667 883.2 282.88 862.72 270.933333L545.28 87.466667C535.466667 81.92 523.946667 78.933333 512 78.933333M597.333333 341.333333C506.88 341.333333 452.693333 379.306667 452.693333 443.306667 452.693333 512 506.453333 532.053333 593.493333 540.586667 697.173333 550.826667 705.28 566.186667 705.28 586.666667 705.28 622.08 676.693333 637.013333 610.133333 637.013333 525.653333 637.013333 507.733333 616.106667 501.333333 574.293333 500.48 570.026667 496.64 566.613333 491.946667 566.613333L450.986667 566.613333C445.866667 566.613333 442.026667 570.453333 442.026667 576 442.026667 628.906667 471.04 692.906667 610.133333 692.906667 710.4 692.906667 768 653.226667 768 584.106667 768 515.413333 721.92 497.493333 624.213333 484.266667 525.653333 471.466667 515.84 464.64 515.84 441.6 515.84 422.4 524.373333 396.8 597.333333 396.8 661.333333 396.8 686.506667 410.88 696.32 454.826667 697.173333 459.093333 701.013333 462.08 705.28 462.08L746.666667 462.08C748.8 462.08 751.36 461.226667 753.066667 459.093333 754.773333 457.386667 756.053333 454.826667 755.2 452.266667 749.226667 376.32 698.88 341.333333 597.333333 341.333333Z" p-id="1897" fill="#1afa29"></path></svg>