<svg id="图层_1" data-name="图层 1" xmlns="http://www.w3.org/2000/svg" viewBox="0 0 64 64">
  <defs>
    <style>
      .cls-1 {
        fill: #fff;
      }

      .cls-2 {
        fill: #38f;
      }
    </style>
  </defs>
  <title>熊爪（64）</title>
  <g>
    <rect class="cls-1" width="64" height="64"/>
    <g id="整理一致性">
      <g id="重画图标">
        <path class="cls-2" d="M13.78,34c6-1.3,5.22-8.42,5-10-.29-2.41-3.15-6.61-7-6.26-4.89.4-5.61,7.39-5.61,7.39C5.52,28.42,7.76,35.32,13.78,34Z"/>
        <path class="cls-2" d="M20.17,46.45a5.17,5.17,0,0,0-.21,2.9A3.3,3.3,0,0,0,22.83,52H26V44.33H22.61A3.77,3.77,0,0,0,20.17,46.45Z"/>
        <path class="cls-2" d="M25,22.06c3.33,0,6-3.8,6-8.49s-2.7-8.49-6-8.49-6,3.79-6,8.49S21.65,22.06,25,22.06Z"/>
        <path class="cls-2" d="M39.33,22.61c4.45.59,7.34-4.13,7.89-7.69s-2.29-7.69-5.45-8.39-7.1,4.28-7.47,7.54C33.87,18.06,34.88,22.06,39.33,22.61Z"/>
        <path class="cls-2" d="M57,28.61c0-1.7-1.42-6.84-6.75-6.84s-6,4.84-6,8.27.27,7.84,6.89,7.71S57,30.32,57,28.61Z"/>
        <path class="cls-2" d="M50.22,43.58s-6.87-5.27-10.9-11c-5.45-8.42-13.21-5-15.79-.71s-6.6,7-7.19,7.71S8,44.44,9.76,52s7.75,7.4,7.75,7.4a34.53,34.53,0,0,0,9.6-.67,20.65,20.65,0,0,1,9.63.25s12.06,4,15.37-3.69S50.22,43.58,50.22,43.58ZM29.59,55H21.76a6.93,6.93,0,0,1-4.91-3.32,8.87,8.87,0,0,1-.61-5.38,6.83,6.83,0,0,1,5.64-5h4.18v-5H29.6Zm14.62,0h-9c-3.5-.88-3.67-3.36-3.67-3.36V41.75l3.67,0v8.89c.21.94,1.42,1.13,1.42,1.13h3.72v-10h3.89Z"/>
      </g>
    </g>
  </g>
</svg>
