<?xml version="1.0" standalone="no"?><!DOCTYPE svg PUBLIC "-//W3C//DTD SVG 1.1//EN" "http://www.w3.org/Graphics/SVG/1.1/DTD/svg11.dtd"><svg t="1524550239153" class="icon" style="" viewBox="0 0 1024 1024" version="1.1" xmlns="http://www.w3.org/2000/svg" p-id="3411" xmlns:xlink="http://www.w3.org/1999/xlink" width="200" height="200"><defs><style type="text/css"></style></defs><path d="M501.937582 545.097053c147.891962 0 268.231366-118.534055 268.223274-264.288929 0-145.746783-120.330301-264.28994-268.222263-264.28994-147.890951 0-268.221252 118.584625-268.221252 264.28994C233.71633 426.520519 354.046631 545.097053 501.937582 545.097053zM612.471463 570.546911 411.497184 570.546911c-186.760063 0-338.664249 149.569875-338.664249 333.472733l0 19.794109c0 96.139636 149.47278 96.139636 338.664249 96.139636l200.974278 0c181.747565 0 338.694591 0 338.694591-96.139636l0-19.794109C951.164031 720.158252 799.235571 570.546911 612.471463 570.546911z" p-id="3412"></path></svg>