<?xml version="1.0" standalone="no"?><!DOCTYPE svg PUBLIC "-//W3C//DTD SVG 1.1//EN" "http://www.w3.org/Graphics/SVG/1.1/DTD/svg11.dtd"><svg t="1740902323742" class="icon" viewBox="0 0 1024 1024" version="1.1" xmlns="http://www.w3.org/2000/svg" p-id="7759" xmlns:xlink="http://www.w3.org/1999/xlink" width="81" height="81"><path d="M64 512c0 160.055 85.388 307.952 224 387.98 138.612 80.027 309.388 80.027 448 0C874.612 819.951 960 672.054 960 512c0-247.424-200.576-448-448-448S64 264.576 64 512z" fill="#E78AF2" p-id="7760"></path><path d="M699.895 250.667c45.652 0 82.772 37.217 82.772 82.988v356.69c0 45.74-37.152 82.988-82.772 82.988H333.438c-45.651 0-82.771-37.217-82.771-82.988v-356.69c0-45.771 37.12-82.988 82.771-82.988h366.457z m-23.308 172.25c-42.279-38.274-111.529-31.985-114.469-31.698-9.81 0.958-17.288 9.193-17.288 19.057V595.45c0 10.566 8.596 19.153 19.174 19.153l2.14 0.032c1.12 0.032 2.238 0.032 3.324 0.032 48.03 0 84.493-11.97 108.397-35.56 20.005-19.76 30.135-46.51 30.135-79.58 0-31.953-10.546-57.713-31.413-76.61z m-251.755-26.399h-0.127a19.139 19.139 0 0 0-17.672 12.002l-70.976 176.652a19.092 19.092 0 0 0 0.146 14.656A19.123 19.123 0 0 0 346.7 610.07a19.354 19.354 0 0 0 7.126 1.373 19.196 19.196 0 0 0 17.8-12.035l16.78-41.753H463.1l17.465 42.009c4.06 9.767 15.276 14.397 25.054 10.342 9.777-4.055 14.413-15.26 10.354-25.026L442.536 408.33a19.185 19.185 0 0 0-17.704-11.811z m158.345 32.591c18.759 0.703 48.575 4.82 67.748 22.281 12.623 11.46 18.759 27.229 18.759 48.137 0 22.76-6.136 39.87-18.759 52.319-14.412 14.237-37.165 22.313-67.748 24.132zM425.12 466.297l22.056 53.053h-43.377l21.321-53.053z" fill="#F9EFFF" p-id="7761"></path></svg>