<?xml version="1.0" standalone="no"?><!DOCTYPE svg PUBLIC "-//W3C//DTD SVG 1.1//EN" "http://www.w3.org/Graphics/SVG/1.1/DTD/svg11.dtd"><svg t="1535379751703" class="icon" style="" viewBox="0 0 1028 1024" version="1.1" xmlns="http://www.w3.org/2000/svg" p-id="2103" xmlns:xlink="http://www.w3.org/1999/xlink" width="200.78125" height="200"><defs><style type="text/css"></style></defs><path d="M110.592 108.544h808.96v808.96H110.592z" fill="#FFEA00" p-id="2104"></path><path d="M944.128 0H83.968C38.912 0 2.048 36.864 2.048 81.92v143.36h61.44V102.4c0-22.528 18.432-40.96 40.96-40.96h819.2c22.528 0 40.96 18.432 40.96 40.96v122.88h61.44V81.92c0-45.056-36.864-81.92-81.92-81.92z m20.48 921.6c0 22.528-18.432 40.96-40.96 40.96H104.448c-22.528 0-40.96-18.432-40.96-40.96v-122.88H2.048v143.36c0 45.056 36.864 81.92 81.92 81.92h860.16c45.056 0 81.92-36.864 81.92-81.92v-143.36h-61.44v122.88z" fill="" p-id="2105"></path><path d="M63.488 286.72h901.12v450.56H63.488z" fill="#FFEA00" p-id="2106"></path><path d="M38.912 366.592c0 36.864 4.096 61.44 4.096 94.208 0 18.432-10.24 36.864-43.008 38.912v30.72c34.816 0 43.008 20.48 43.008 38.912 0 32.768-4.096 57.344-4.096 94.208 0 53.248 18.432 69.632 61.44 69.632H124.928v-28.672h-10.24c-26.624 0-32.768-10.24-32.768-43.008 0-28.672 2.048-55.296 2.048-88.064 0-34.816-10.24-51.2-32.768-55.296v-2.048c24.576-8.192 32.768-22.528 32.768-57.344 0-32.768-2.048-59.392-2.048-88.064 0-30.72 6.144-43.008 32.768-43.008H124.928v-28.672H100.352c-40.96-2.048-61.44 14.336-61.44 67.584z m534.528 129.024l-45.056-18.432c-26.624-10.24-53.248-22.528-53.248-49.152 0-26.624 22.528-43.008 55.296-43.008 28.672 0 53.248 10.24 73.728 30.72l26.624-32.768c-24.576-26.624-61.44-40.96-100.352-40.96-63.488 0-108.544 38.912-108.544 92.16 0 49.152 34.816 73.728 67.584 86.016l45.056 20.48c30.72 14.336 53.248 22.528 53.248 53.248 0 28.672-22.528 47.104-63.488 47.104-32.768 0-63.488-14.336-88.064-38.912l-26.624 30.72-22.528-26.624c-20.48 22.528-43.008 34.816-73.728 34.816-59.392 0-96.256-49.152-96.256-126.976 0-77.824 38.912-124.928 96.256-124.928 26.624 0 47.104 12.288 65.536 30.72l28.672-32.768c-20.48-22.528-53.248-40.96-94.208-40.96-81.92-8.192-147.456 57.344-147.456 165.888s63.488 169.984 147.456 169.984c40.96 0 73.728-16.384 98.304-43.008 30.72 26.624 69.632 43.008 112.64 43.008 71.68 0 116.736-43.008 116.736-96.256 0-49.152-28.672-71.68-67.584-90.112z m229.376 0l-45.056-18.432c-26.624-10.24-53.248-22.528-53.248-49.152 0-26.624 22.528-43.008 55.296-43.008 28.672 0 53.248 10.24 73.728 30.72l26.624-32.768c-24.576-26.624-61.44-40.96-100.352-40.96-63.488 0-108.544 38.912-108.544 92.16 0 49.152 34.816 73.728 67.584 86.016l45.056 20.48c30.72 14.336 53.248 22.528 53.248 53.248 0 28.672-22.528 47.104-63.488 47.104-32.768 0-63.488-14.336-88.064-38.912L634.88 634.88c30.72 30.72 71.68 49.152 118.784 49.152 71.68 0 116.736-43.008 116.736-96.256 0-51.2-28.672-73.728-67.584-92.16z m182.272-34.816c0-32.768 4.096-57.344 4.096-94.208 0-53.248-18.432-69.632-61.44-69.632H903.168v28.672h12.288c26.624 0 32.768 12.288 32.768 43.008 0 28.672-2.048 55.296-2.048 88.064 0 34.816 8.192 51.2 32.768 55.296v2.048c-26.624 8.192-34.816 24.576-34.816 59.392 0 32.768 2.048 59.392 2.048 88.064 0 30.72-6.144 43.008-32.768 43.008H903.168v28.672h24.576c40.96 0 61.44-16.384 61.44-69.632 0-36.864-4.096-61.44-4.096-94.208 0-18.432 10.24-38.912 43.008-38.912v-30.72c-34.816 0-43.008-20.48-43.008-38.912z" fill="" p-id="2107"></path></svg>