<?xml version="1.0" standalone="no"?><!DOCTYPE svg PUBLIC "-//W3C//DTD SVG 1.1//EN" "http://www.w3.org/Graphics/SVG/1.1/DTD/svg11.dtd"><svg t="1591844876974" class="icon" viewBox="0 0 1024 1024" version="1.1" xmlns="http://www.w3.org/2000/svg" p-id="4723" xmlns:xlink="http://www.w3.org/1999/xlink" width="200" height="200"><defs><style type="text/css"></style></defs><path d="M946.176 896a34.304 34.304 0 0 1 0 68.608H77.824a34.304 34.304 0 0 1 0-68.608h868.352z m0-622.08L401.92 818.176 189.44 839.68l21.504-211.968 473.088-473.088 71.168-71.168c31.744-31.744 87.552-31.744 119.296 0l71.168 71.168c15.872 15.872 24.576 37.376 24.576 59.904 0.512 22.016-8.192 43.52-24.064 59.392zM266.24 762.88l103.936-10.752 431.616-431.616-93.696-93.696L276.48 658.432 266.24 762.88zM815.104 127.488c-4.096 0-8.192 1.536-11.264 4.608l-46.592 46.592 93.696 93.696 46.592-46.592c6.144-6.144 6.144-16.384 0-22.528l-71.168-71.168c-3.072-3.072-7.168-4.608-11.264-4.608z" p-id="4724" fill="#707070"></path></svg>