<?xml version="1.0" standalone="no"?><!DOCTYPE svg PUBLIC "-//W3C//DTD SVG 1.1//EN" "http://www.w3.org/Graphics/SVG/1.1/DTD/svg11.dtd"><svg t="1561294786879" class="icon" viewBox="0 0 1024 1024" version="1.1" xmlns="http://www.w3.org/2000/svg" p-id="2030" xmlns:xlink="http://www.w3.org/1999/xlink" width="200" height="200"><defs><style type="text/css"></style></defs><path d="M950.820202 899.620202l-168.210101-168.080808c64.646465-74.731313 100.072727-169.115152 100.072727-268.8 0-109.89899-42.79596-213.20404-120.50101-290.779798S581.171717 51.329293 471.40202 51.329293c-109.89899 0-213.20404 42.79596-290.779798 120.50101-77.705051 77.705051-120.50101 181.010101-120.50101 290.779798 0 109.89899 42.79596 213.20404 120.50101 290.779798 77.705051 77.705051 181.010101 120.50101 290.779798 120.50101 90.763636 0 177.00202-29.220202 248.113132-83.135353l170.149494 170.149495c8.40404 8.40404 19.523232 12.670707 30.642425 12.670707s22.109091-4.266667 30.642424-12.670707c16.808081-16.937374 16.808081-44.347475-0.129293-61.284849z m-804.20202-437.010101c0-179.070707 145.713131-324.654545 324.654545-324.654545 179.070707 0 324.654545 145.713131 324.654546 324.654545 0.129293 179.070707-145.454545 324.783838-324.525253 324.783838S146.618182 641.680808 146.618182 462.610101z m0 0" fill="" p-id="2031"></path></svg>