<?xml version="1.0" standalone="no"?><!DOCTYPE svg PUBLIC "-//W3C//DTD SVG 1.1//EN" "http://www.w3.org/Graphics/SVG/1.1/DTD/svg11.dtd"><svg t="1610844664805" class="icon" viewBox="0 0 1024 1024" version="1.1" xmlns="http://www.w3.org/2000/svg" p-id="4151" xmlns:xlink="http://www.w3.org/1999/xlink" width="200" height="200"><defs><style type="text/css"></style></defs><path d="M383 646.085L399.025 637 533 871.915 516.975 881z" fill="#834038" p-id="4152"></path><path d="M449 502.193L467.122 499 534 874.807 515.878 878z" fill="#834038" p-id="4153"></path><path d="M520.148 455l17.852 0.184L533.852 876 516 875.816z" fill="#834038" p-id="4154"></path><path d="M593.107 560L611 564.338 533.893 878 516 873.662z" fill="#834038" p-id="4155"></path><path d="M363.23 632.467l26.373-20.207 36.475 28.236-60.264 28.554z" fill="#61CB69" p-id="4156"></path><path d="M371.964 658.54l41.068-19.459-23.45-18.153-19.233 14.736 1.615 22.876z m17.66-54.947l49.499 38.318-79.459 37.649-3.551-50.29 33.512-25.677z" fill="#834038" p-id="4157"></path><path d="M161.062622 555.070208a185.273 142.084 56 1 0 235.585948-158.904729 185.273 142.084 56 1 0-235.585948 158.904729Z" fill="#5DC861" p-id="4158"></path><path d="M166.073474 563.459414c50.076676 9.453707 105.051206-0.668111 152.139711-32.429708 45.230632-30.508446 74.674697-75.242139 85.783934-123.011032 50.392145 83.359394 42.246629 181.667261-20.29182 223.849977-63.431323 42.784967-159.435051 12.057293-217.630996-68.409796z" fill="#000000" opacity=".342" p-id="4159"></path><path d="M159.265872 399.805647a26.676 18.617 81 1 0 36.775588-5.824681 26.676 18.617 81 1 0-36.775588 5.824681Z" fill="#FFFFFF" opacity=".516" p-id="4160"></path><path d="M388.588271 632.614669C319.90085 678.944919 216.757081 644.248378 157.653747 556.624081S105.019234 360.369822 173.707484 314.039013c68.689079-46.331369 171.830631-11.634538 230.933965 75.989759 59.103335 87.624297 52.63673 196.253969-16.052349 242.585338z m-9.143922-13.556423c60.140873-40.565531 65.997297-138.940892 11.47487-219.773713-54.521867-80.831992-147.927769-112.254069-208.068642-71.688539-60.140044 40.564972-65.996468 138.940333-11.474601 219.772326 54.522426 80.832821 147.928329 112.254898 208.068373 71.689926z" fill="#834038" p-id="4161"></path><path d="M437.04 477.842l26.353-20.247 36.448 28.292-60.22 28.611z" fill="#7BCEF5" p-id="4162"></path><path d="M436.607 503.967l41.038-19.497-23.433-18.19-19.22 14.766 1.615 22.921z m17.648-55.057l49.462 38.395-79.4 37.724-3.55-50.39 33.488-25.729z" fill="#834038" p-id="4163"></path><path d="M182.851364 346.682884a215.438 162.591 69 1 0 303.583551-116.534806 215.438 162.591 69 1 0-303.583551 116.534806Z" fill="#7BCEF5" p-id="4164"></path><path d="M187.144506 353.533366c53.552778 23.826978 117.549185 26.940517 178.229112 3.647676 58.285293-22.373628 102.542526-64.900627 127.08478-115.671997 35.141143 106.990826 1.078819 215.357328-79.509711 246.292366-81.739634 31.376906-181.209115-28.471528-225.805115-134.267687z" fill="#000000" opacity=".342" p-id="4165"></path><path d="M219.122311 169.151336a21.475 31.053 4 1 0 42.845376 2.996041 21.475 31.053 4 1 0-42.845376-2.996041Z" fill="#FFFFFF" opacity=".516" p-id="4166"></path><path d="M415.134373 498.102313C325.949435 532.337203 218.57957 465.315573 174.30106 349.96611 130.020899 234.615138 164.965676 112.962964 254.150614 78.728074S450.708934 111.515606 494.987445 226.865069 504.319311 463.867423 415.135306 498.101954z m-6.850204-17.84539c78.086534-29.974612 109.733605-140.143263 68.886827-246.55276S339.088285 66.598494 261.001751 96.573106c-78.0856 29.974254-109.732314 140.143838-68.885893 246.552401 40.846779 106.409497 138.082711 167.105669 216.168311 137.131416z" fill="#834038" p-id="4167"></path><path d="M368.139 287.5a206.33 155.361 90 1 0 310.722 0 206.33 155.361 90 1 0-310.722 0Z" fill="#E384CA" p-id="4168"></path><path d="M368.139 296.67c39.553 39.64 95.49 64.36 157.5 64.36 59.565 0 113.525-22.808 152.744-59.738-5.281 107.602-72.671 192.707-155.028 192.707-83.533 0-151.668-87.552-155.216-197.329z" fill="#000000" opacity=".342" p-id="4169"></path><path d="M460.279811 140.512207a20.576 29.785 25 1 0 37.296378 17.391586 20.576 29.785 25 1 0-37.296378-17.391586Z" fill="#FFFFFF" opacity=".516" p-id="4170"></path><path d="M523.5 503C432.003 503 359 406.047 359 287.5S432.003 72 523.5 72 688 168.953 688 287.5 614.997 503 523.5 503z m0-18.34c80.11 0 146.222-87.801 146.222-197.16S603.61 90.34 523.5 90.34c-80.11 0-146.222 87.801-146.222 197.16S443.39 484.66 523.5 484.66z" fill="#834038" p-id="4171"></path><path d="M840.027 354.467c-11.121 52.738 0.351 98.97 34.385 138.738 34.033 39.768 24.416 63.596-28.812 71.519-53.228 7.922-94.155 35-122.923 81.321-28.81 46.289-54.074 45.499-75.827-2.329-21.752-47.827-58.556-77.335-110.37-88.491-51.812-11.156-57.77-35.468-18.065-72.953 39.739-37.525 58.013-82.833 54.74-135.99-3.24-53.197 18.341-67.433 64.663-42.773 46.363 24.692 94.421 26.19 144.21 4.455 49.746-21.77 69.121-6.235 58 46.503z" fill="#C3BB42" p-id="4172"></path><path d="M871.176 498.324c-5.864 1.882-12.672 3.405-20.425 4.571-52.214 7.852-92.296 35.128-120.385 81.918-28.129 46.756-52.926 45.878-74.426-2.593-21.5-48.47-57.712-78.449-108.599-89.9-10.842-2.44-19.644-5.479-26.405-9.115 37.194-36.628 54.766-80.646 52.643-132.114 5.822-16.485 8.97-33.979 9.44-52.486 10.16-10.835 28.05-9.19 53.655 4.922 45.58 25.135 92.752 26.8 141.547 4.958 48.755-21.876 67.819-6.095 57.07 47.244-10.75 53.338 0.656 100.163 34.183 140.515 0.58 0.698 1.147 1.392 1.702 2.08z" fill="#EFE15C" p-id="4173"></path><path d="M785.291 316.104c-52.164 22.94-103.06 21.29-151.839-4.976-39.603-21.315-53.388-12.126-50.545 34.103 3.494 56.188-15.696 104.409-57.235 144.001-34.202 32.592-30.469 47.78 13.585 57.404 54.514 11.91 93.633 43.588 116.574 94.402 18.549 41.085 34.191 41.59 58.968 1.357 30.033-48.875 73.165-77.652 128.911-85.964 45.84-6.835 51.964-22.21 22.857-56.53-35.835-42.253-48.031-91.694-36.438-147.488 9.462-45.535-2.3-55.06-44.838-36.309z m95.578 171.683c38.76 45.702 25.808 78.222-34.36 87.194-50.244 7.492-88.563 33.058-115.724 77.258-32.482 52.746-67.16 51.625-92.052-3.51-20.495-45.395-54.745-73.13-103.452-83.77-59.117-12.916-67.394-46.595-22.567-89.311 37.564-35.805 54.616-78.652 51.468-129.292-3.733-60.698 25.405-80.123 78.144-51.737 43.638 23.498 88.463 24.951 135.379 4.32 56.497-24.906 83.36-3.153 70.794 57.318-10.429 50.188 0.313 93.731 32.37 131.53z" fill="#834038" p-id="4174"></path><path d="M506.222 882.404c-9.157 21.177-12.71 39.47-10.659 54.88 2.972 18.528 12.358 22.73 23.522 17.828C530.63 950.04 537 921.467 537 906.583V876h-17.915l-12.863 6.404z" fill="#834038" p-id="4175"></path><path d="M507.79 866.424L537 865v18h-31z" fill="#E1AAB0" p-id="4176"></path></svg>