<?xml version="1.0" standalone="no"?><!DOCTYPE svg PUBLIC "-//W3C//DTD SVG 1.1//EN" "http://www.w3.org/Graphics/SVG/1.1/DTD/svg11.dtd"><svg t="1633520320033" class="icon" viewBox="0 0 1024 1024" version="1.1" xmlns="http://www.w3.org/2000/svg" p-id="4898" width="128" height="128" xmlns:xlink="http://www.w3.org/1999/xlink"><defs><style type="text/css"></style></defs><path d="M20.945 144.29h975.128v651.637H20.945z" fill="#FFFFFF" p-id="4899"></path><path d="M998.4 795.927H20.945V144.291h975.128v651.636z m-975.127 0h972.8V144.291h-972.8v651.636z" fill="#EFEFEF" p-id="4900"></path><path d="M20.945 144.29h975.128v55.855H20.945z m0 104.728h975.128v46.546H20.945z m0 100.073h975.128v46.545H20.945z m0 100.073h975.128v46.545H20.945z m0 100.072h975.128v46.546H20.945z m0 100.073h975.128v46.546H20.945z m0 100.073h975.128v46.545H20.945z" fill="#B72343" p-id="4901"></path><path d="M20.945 144.29h390.982v351.42H20.945z" fill="#00467B" p-id="4902"></path><path d="M90.764 202.473l2.327 6.982h6.982l-4.655 2.327 2.327 6.982-6.981-4.655-4.655 4.655 2.327-6.982-6.981-2.327h6.981z m65.163 0v6.982h6.982l-4.654 2.327 2.327 6.982-4.655-4.655-6.982 4.655 2.328-6.982-4.655-2.327h6.982z m65.164 0l2.327 6.982h6.982l-6.982 2.327 2.327 6.982-4.654-4.655-6.982 4.655 2.327-6.982-4.654-2.327h6.982z m62.836 0l2.328 6.982h6.981l-4.654 2.327 2.327 6.982-6.982-4.655-4.654 4.655 2.327-6.982-4.655-2.327h6.982z m67.491 0l2.327 6.982h6.982l-6.982 2.327 2.328 6.982-4.655-4.655-6.982 4.655 2.328-6.982-4.655-2.327h6.982z m-293.236-34.91l2.327 6.982h6.982l-6.982 4.655 2.327 6.982-4.654-4.655-4.655 4.655V179.2l-4.654-4.655h6.982z m65.163 0l2.328 6.982h4.654l-4.654 4.655 2.327 6.982-4.655-4.655-6.981 4.655 2.327-6.982-4.655-4.655h6.982z m65.164 0l2.327 6.982h6.982l-6.982 4.655 2.328 6.982-4.655-4.655-6.982 4.655 2.328-6.982-4.655-4.655h6.982z m65.164 0v6.982h6.982L256 179.2l2.327 6.982-4.654-4.655-6.982 4.655 2.327-6.982-4.654-4.655h6.981z m65.163 0l2.328 6.982h6.981l-6.981 4.655 2.327 6.982-4.655-4.655-4.654 4.655V179.2l-4.655-4.655h6.982z m65.164 0l2.327 6.982h4.655l-4.655 4.655 2.328 6.982-4.655-4.655-6.982 4.655 2.327-6.982-4.654-4.655h6.982zM90.764 274.618l2.327 4.655h6.982l-4.655 4.654 2.327 6.982-6.981-4.654-4.655 4.654 2.327-6.982-6.981-4.654h6.981z m65.163 0v4.655h6.982l-4.654 4.654 2.327 6.982-4.655-4.654-6.982 4.654 2.328-6.982-4.655-4.654h6.982z m65.164 0l2.327 4.655h6.982l-6.982 4.654 2.327 6.982-4.654-4.654-6.982 4.654 2.327-6.982-4.654-4.654h6.982z m62.836 0l2.328 4.655h6.981l-4.654 4.654 2.327 6.982-6.982-4.654-4.654 4.654 2.327-6.982-4.655-4.654h6.982z m67.491 0l2.327 4.655h6.982l-6.982 4.654 2.328 6.982-4.655-4.654-6.982 4.654 2.328-6.982-4.655-4.654h6.982zM58.182 239.71l2.327 6.98h6.982l-6.982 4.655 2.327 6.982-4.654-4.654-4.655 4.654v-6.982l-4.654-4.654h6.982z m65.163 0l2.328 6.98h4.654l-4.654 4.655 2.327 6.982-4.655-4.654-6.981 4.654 2.327-6.982-4.655-4.654h6.982z m65.164 0l2.327 6.98h6.982l-6.982 4.655 2.328 6.982-4.655-4.654-6.982 4.654 2.328-6.982-4.655-4.654h6.982z m65.164 0v6.98h6.982L256 251.346l2.327 6.982-4.654-4.654-6.982 4.654 2.327-6.982-4.654-4.654h6.981z m65.163 0l2.328 6.98h6.981l-6.981 4.655 2.327 6.982-4.655-4.654-4.654 4.654v-6.982l-4.655-4.654h6.982z m65.164 0l2.327 6.98h4.655l-4.655 4.655 2.328 6.982-4.655-4.654-6.982 4.654 2.327-6.982-4.654-4.654h6.982zM90.764 346.764l2.327 6.981h6.982l-4.655 4.655 2.327 6.982-6.981-4.655-4.655 4.655 2.327-6.982-6.981-4.655h6.981z m65.163 0v6.981h6.982l-4.654 4.655 2.327 6.982-4.655-4.655-6.982 4.655 2.328-6.982-4.655-4.655h6.982z m65.164 0l2.327 6.981h6.982l-6.982 4.655 2.327 6.982-4.654-4.655-6.982 4.655 2.327-6.982-4.654-4.655h6.982z m62.836 0l2.328 6.981h6.981l-4.654 4.655 2.327 6.982-6.982-4.655-4.654 4.655 2.327-6.982-4.655-4.655h6.982z m67.491 0l2.327 6.981h6.982l-6.982 4.655 2.328 6.982-4.655-4.655-6.982 4.655 2.328-6.982-4.655-4.655h6.982zM58.182 314.182l2.327 6.982h6.982l-6.982 2.327 2.327 6.982-4.654-2.328-4.655 2.328v-6.982l-4.654-2.327h6.982z m65.163 0l2.328 6.982h4.654l-4.654 2.327 2.327 6.982-4.655-2.328-6.981 2.328 2.327-6.982-4.655-2.327h6.982z m65.164 0l2.327 6.982h6.982l-6.982 2.327 2.328 6.982-4.655-2.328-6.982 2.328 2.328-6.982-4.655-2.327h6.982z m65.164 0v6.982h6.982L256 323.49l2.327 6.982-4.654-2.328-6.982 2.328 2.327-6.982-4.654-2.327h6.981z m65.163 0l2.328 6.982h6.981l-6.981 2.327 2.327 6.982-4.655-2.328-4.654 2.328v-6.982l-4.655-2.327h6.982z m65.164 0l2.327 6.982h4.655l-4.655 2.327 2.328 6.982-4.655-2.328-6.982 2.328 2.327-6.982-4.654-2.327h6.982zM90.764 421.236l2.327 6.982h6.982l-4.655 4.655 2.327 4.654-6.981-2.327-4.655 2.327 2.327-4.654-6.981-4.655h6.981z m65.163 0v6.982h6.982l-4.654 4.655 2.327 4.654-4.655-2.327-6.982 2.327 2.328-4.654-4.655-4.655h6.982z m65.164 0l2.327 6.982h6.982l-6.982 4.655 2.327 4.654-4.654-2.327-6.982 2.327 2.327-4.654-4.654-4.655h6.982z m62.836 0l2.328 6.982h6.981l-4.654 4.655 2.327 4.654-6.982-2.327-4.654 2.327 2.327-4.654-4.655-4.655h6.982z m67.491 0l2.327 6.982h6.982l-6.982 4.655 2.328 4.654-4.655-2.327-6.982 2.327 2.328-4.654-4.655-4.655h6.982zM58.182 388.655l2.327 4.654h6.982l-6.982 4.655 2.327 6.981-4.654-4.654-4.655 4.654v-6.981l-4.654-4.655h6.982z m65.163 0l2.328 4.654h4.654l-4.654 4.655 2.327 6.981-4.655-4.654-6.981 4.654 2.327-6.981-4.655-4.655h6.982z m65.164 0l2.327 4.654h6.982l-6.982 4.655 2.328 6.981-4.655-4.654-6.982 4.654 2.328-6.981-4.655-4.655h6.982z m65.164 0v4.654h6.982L256 397.964l2.327 6.981-4.654-4.654-6.982 4.654 2.327-6.981-4.654-4.655h6.981z m65.163 0l2.328 4.654h6.981l-6.981 4.655 2.327 6.981-4.655-4.654-4.654 4.654v-6.981l-4.655-4.655h6.982z m65.164 0l2.327 4.654h4.655l-4.655 4.655 2.328 6.981-4.655-4.654-6.982 4.654 2.327-6.981-4.654-4.655h6.982zM58.182 456.145l2.327 6.982h6.982l-6.982 4.655 2.327 6.982-4.654-4.655-4.655 4.655v-6.982l-4.654-4.655h6.982z m65.163 0l2.328 6.982h4.654l-4.654 4.655 2.327 6.982-4.655-4.655-6.981 4.655 2.327-6.982-4.655-4.655h6.982z m65.164 0l2.327 6.982h6.982l-6.982 4.655 2.328 6.982-4.655-4.655-6.982 4.655 2.328-6.982-4.655-4.655h6.982z m65.164 0v6.982h6.982L256 467.782l2.327 6.982-4.654-4.655-6.982 4.655 2.327-6.982-4.654-4.655h6.981z m65.163 0l2.328 6.982h6.981l-6.981 4.655 2.327 6.982-4.655-4.655-4.654 4.655v-6.982l-4.655-4.655h6.982z m65.164 0l2.327 6.982h4.655l-4.655 4.655 2.328 6.982-4.655-4.655-6.982 4.655 2.327-6.982-4.654-4.655h6.982z" fill="#FFFFFF" p-id="4903"></path></svg>