<?xml version="1.0" standalone="no"?><!DOCTYPE svg PUBLIC "-//W3C//DTD SVG 1.1//EN" "http://www.w3.org/Graphics/SVG/1.1/DTD/svg11.dtd"><svg t="1524323631206" class="icon" style="" viewBox="0 0 1024 1024" version="1.1" xmlns="http://www.w3.org/2000/svg" p-id="1958" xmlns:xlink="http://www.w3.org/1999/xlink" width="200" height="200"><defs><style type="text/css"></style></defs><path d="M853.344 0 170.688 0C76.8 0 0 76.8 0 170.688l0 682.624C0 947.264 76.8 1024 170.688 1024L853.344 1024c93.888 0 170.656-76.736 170.656-170.688L1024 170.688C1024 76.8 947.232 0 853.344 0zM278.944 831.264C230.976 831.264 192 792.544 192 744.608c0-47.68 38.976-86.816 86.944-86.816 48.16 0 87.072 39.136 87.072 86.816C366.016 792.544 327.104 831.264 278.944 831.264zM497.472 832c0-81.824-31.808-158.816-89.472-216.448-57.728-57.76-134.368-89.632-215.904-89.632L192.096 400.736c237.664 0 431.136 193.44 431.136 431.264L497.472 832 497.472 832zM719.616 832c0-291.072-236.672-527.936-527.36-527.936L192.256 178.816c360 0 652.96 293.12 652.96 653.184L719.616 832 719.616 832z" p-id="1959" fill="#1afa29"></path></svg>