<?xml version="1.0" standalone="no"?><!DOCTYPE svg PUBLIC "-//W3C//DTD SVG 1.1//EN" "http://www.w3.org/Graphics/SVG/1.1/DTD/svg11.dtd"><svg t="1524321794528" class="icon" style="" viewBox="0 0 1024 1024" version="1.1" xmlns="http://www.w3.org/2000/svg" p-id="2211" xmlns:xlink="http://www.w3.org/1999/xlink" width="200" height="200"><defs><style type="text/css"></style></defs><path d="M809.472 454.144c-44.544-150.016-209.92-237.568-363.008-223.744-154.112 13.824-332.288 174.592-258.048 336.896 20.48 45.568 67.072 60.928 114.176 66.56 23.04 3.072 140.8-2.56 144.896 25.6 0 2.56 2.048 5.12 4.096 6.656 0 29.696-11.264 71.68-8.704 86.528 8.704 56.832 68.608 56.32 115.2 49.152 82.944-13.312 168.96-49.152 221.184-115.712 49.152-62.464 51.712-159.232 30.208-231.936z" fill="#FDF1CD" p-id="2212"></path><path d="M586.24 620.544c-44.544-8.704-98.304 25.6-103.424 70.144-2.048 18.432 9.216 40.96 26.624 48.64 2.048 1.024 4.608 1.024 7.168 1.024 26.112 21.504 64 32.256 90.112 6.144 33.28-32.768 34.816-114.688-20.48-125.952z" fill="#3FA672" p-id="2213"></path><path d="M524.288 719.36c-3.584-3.584-6.656-7.168-9.728-11.264-5.632-8.192-6.144-18.432-2.048-27.136 2.56-4.608 5.632-9.216 9.216-12.8 3.584 0 6.656-1.024 9.216-3.072 10.752-2.56 22.016-4.608 33.28-6.144 2.048 1.024 4.096 1.536 6.144 1.024 2.048-0.512 4.096-0.512 6.656-1.024 0 0.512 0.512 1.536 1.024 2.048 15.36 20.48 15.872 40.448 17.408 63.488-15.872 25.088-49.664 15.36-71.168-5.12z" fill="#A3F588" p-id="2214"></path><path d="M707.584 480.768c-30.208 7.68-42.496 48.64-36.352 74.752 1.024 3.072 2.56 6.144 4.608 8.704 1.536 10.752 7.168 20.48 15.36 27.136 8.704 8.192 22.016 9.728 32.768 4.096 13.312-7.68 18.432-25.088 20.992-39.936 4.608-9.728 8.704-19.968 11.264-30.208 1.024-4.608-1.024-9.728-5.12-12.288l-6.144-4.096c-4.096-18.432-14.336-33.792-37.376-28.16z m-15.872 80.384c0.512-5.12 0.512-9.728 0.512-14.848 0.512-1.024 0.512-2.048 1.024-3.584 1.024 9.216 2.048 17.92 2.56 27.136 0 1.024 0.512 2.56 1.024 3.584-2.56-3.584-4.096-7.68-5.12-12.288z" fill="#E5724C" p-id="2215"></path><path d="M680.448 416.256c13.312-34.304-23.552-78.336-50.688-94.72-37.376-23.04-83.968 9.728-69.632 51.2 9.216 26.624 25.6 57.856 50.176 73.216 17.408 10.752 36.352 2.56 49.152-11.776 9.728-2.56 17.408-9.216 20.992-17.92zM602.112 404.48v1.024c-7.168-11.264-13.312-23.04-17.92-35.328-3.584-8.704-4.096-14.336-1.024-19.968 8.704 9.216 10.24 20.992 13.824 32.768 1.024 3.072 3.072 5.632 5.632 6.656-1.024 4.608-1.024 9.728-0.512 14.848z m28.16-14.848h-3.584l1.536-7.68c1.536 3.072 3.584 5.632 5.12 8.704-0.512-0.512-1.536-1.024-3.072-1.024z" fill="#F588BE" p-id="2216"></path><path d="M491.52 329.728c3.584-4.096 3.072-10.752-1.024-14.336-0.512-0.512-1.024-1.024-1.536-1.024-0.512-5.12-3.584-9.728-8.704-11.264-3.072-4.096-6.144-7.68-9.728-10.24-2.048-4.608-7.168-7.68-12.288-7.68-23.552-10.752-53.76-6.656-70.656 14.336-1.024 1.024-1.536 2.56-2.56 3.584-33.28 34.304-44.544 126.976 23.552 115.712 38.912-6.656 83.456-46.08 81.92-86.528 0-1.536 0.512-2.048 1.024-2.56z" fill="#BF88F5" p-id="2217"></path><path d="M345.088 482.816c-4.096-27.136-35.328-40.448-60.416-47.616-3.072-3.584-8.192-4.608-12.288-2.56-5.632-0.512-10.752 3.072-12.288 8.704-1.024 7.168-2.048 13.824-2.048 20.992-7.168 22.016-10.752 47.104 4.096 64 13.824 16.384 36.864 13.312 53.76 4.608 3.072-1.536 6.144-3.584 8.704-5.632 2.048-0.512 3.584-1.536 4.608-2.56 7.168-7.168 15.36-13.824 18.432-23.552 1.024-3.584 0-7.168-2.56-9.216 0.512-2.56 0.512-5.12 0-7.168z" fill="#4C72E5" p-id="2218"></path><path d="M809.472 454.144c-44.544-150.016-209.92-237.568-363.008-223.744-154.112 13.824-332.288 174.592-258.048 336.896 20.48 45.568 67.072 60.928 114.176 66.56 23.04 3.072 140.8-2.56 144.896 25.6 0 2.56 2.048 5.12 4.096 6.656 0 29.696-11.264 71.68-8.704 86.528 8.704 56.832 68.608 56.32 115.2 49.152 82.944-13.312 168.96-49.152 221.184-115.712 49.152-62.464 51.712-159.232 30.208-231.936z m-15.872 130.048c-18.432 114.176-114.688 166.4-220.16 191.488-28.16 6.656-89.6 22.016-105.472-14.336-9.728-22.528-1.024-51.712 2.048-74.752 4.608-29.184 7.68-71.68-34.304-69.12-1.024 0-2.048 0.512-3.072 0.512-28.16-7.168-65.536-6.144-82.432-7.168-38.4-2.56-85.504-3.584-116.736-28.16-47.104-37.888-35.84-109.056-17.92-157.696 74.24-199.168 343.552-209.92 488.448-85.504 70.656 60.928 104.448 153.6 89.6 244.736z" fill="#3F72A6" p-id="2219"></path></svg>