<?xml version="1.0" encoding="utf-8"?>
<!-- Generator: Adobe Illustrator 19.0.0, SVG Export Plug-In . SVG Version: 6.00 Build 0)  -->
<svg version="1.1" id="图层_1" xmlns="http://www.w3.org/2000/svg" xmlns:xlink="http://www.w3.org/1999/xlink" x="0px" y="0px"
	 viewBox="3811 2803.1 440.5 165.8" style="enable-background:new 3811 2803.1 440.5 165.8;" xml:space="preserve">
<style type="text/css">
	.st0{fill:#FFFFFF;}
	.st1{fill:#37CC8E;}
	.st2{opacity:0.5;fill:#37CC8E;enable-background:new    ;}
	.st3{opacity:0.8;fill:#37CC8E;enable-background:new    ;}
</style>
<path class="st0" d="M4050.7,2913.7h50.5c13,0.3,18.5-4.8,18.1-15.3v-27.5h-81.6v42.8c0.8,9.6-2.7,18.3-12.8,23.1v6.2
	C4043.4,2936.9,4051.5,2926.4,4050.7,2913.7L4050.7,2913.7z M4072.7,2878v28.5h-22V2878H4072.7z M4106.4,2900.4
	c0.4,4.4-0.4,6.1-6.5,6.1h-15.5V2878h22V2900.4z"/>
<path class="st0" d="M4072.7,2846.6v10.2h-35v7.1h81.6v-7.1h-35v-10.2h47.9v-7.1h-47.9v-9.2h-11.7v9.2h-47.9v7.1H4072.7z"/>
<path class="st0" d="M4072.7,2846.6v10.2h-35v7.1h81.6v-7.1h-35v-10.2h47.9v-7.1h-47.9v-9.2h-11.7v9.2h-47.9v7.1H4072.7z"/>
<path class="st0" d="M4251.5,2846.6v-7.1h-46.6v-9.2h-11.7v9.2h-47.9v7.1H4251.5z"/>
<path class="st0" d="M4190.6,2913.7v11.1c0.4,5.4-4,8.4-11.7,8.2h-3.9l-3.9,7.1h11.7c13,0.3,19.8-5.7,19.4-15.3v-11.1h49.2v-7.1
	h-49.2l0.1-0.6c16.6-3.2,24-7.9,36.1-13.6v-7.1h-80.3v7.1h63.5c-9.7,3.8-17,7.3-31.1,10.2v4h-45.3v7.1H4190.6z"/>
<path class="st0" d="M4219.1,2879.1c13.3,0.6,20.2-4,19.4-14.3v-12.2h-80.3v26.4H4219.1z M4171.2,2859.8h54.4v5.1
	c0.3,5.3-1.3,7.4-7.8,7.1h-46.6V2859.8z"/>
<path class="st1" d="M3905.1,2803.7l1.9,0.1c0.6-0.5,1.4-0.8,2.3-0.8c1,0,2.1,0.4,2.7,1l1.6,0.1c10,15.7,33.3,52.1,33.3,52.1h-27.2
	l-11.4-32.1l-13.2,40.4h55.7l11.7,17.7h-107.5C3855.1,2882.5,3892.4,2823.7,3905.1,2803.7z M3912.6,2967.1h-0.9
	c-0.6,1.2-1.9,1.8-3.4,1.8c-1.7,0-3.1-0.9-3.6-2.3h-0.6c-10-15.7-33.3-52.1-33.3-52.1h27.2l11.4,32.1l13.2-40.4h-55.7l-11.7-17.7
	h107.5C3962.6,2888.3,3925.3,2947.1,3912.6,2967.1z"/>
<path class="st2" d="M3988.2,2918.8c5.8-8.6,9.3-19.4,9.3-31.4c0-11.1-3.1-21.4-8.3-29.7c9.5,5.4,16.1,17,16.1,30.2
	C4005.3,2901.9,3998.2,2913.7,3988.2,2918.8z"/>
<path class="st3" d="M3964.3,2932.1c7.9-12.3,12.6-28.1,12.6-45.2c0-15.9-4.1-30.7-11-42.6c12.7,7.9,21.4,24.4,21.4,43.4
	C3987.2,2907.6,3977.7,2924.7,3964.3,2932.1z"/>
<path class="st2" d="M3818.8,2889c0,11,3.1,21.2,8.2,29.5c-9.5-5.4-15.9-16.8-15.9-30.2c0-13.9,7.1-25.7,17.2-30.8
	C3822.3,2866.2,3818.8,2877.1,3818.8,2889z"/>
<path class="st3" d="M3842.1,2888.5c0,15.9,4.1,30.7,11,42.6c-12.7-7.9-21.4-24.4-21.4-43.4c0-19.8,9.5-36.9,22.9-44.3
	C3846.9,2855.8,3842.1,2871.4,3842.1,2888.5z"/>
</svg>
