<?xml version="1.0" standalone="no"?><!DOCTYPE svg PUBLIC "-//W3C//DTD SVG 1.1//EN" "http://www.w3.org/Graphics/SVG/1.1/DTD/svg11.dtd"><svg t="1539481785023" class="icon" style="" viewBox="0 0 1024 1024" version="1.1" xmlns="http://www.w3.org/2000/svg" p-id="6785" xmlns:xlink="http://www.w3.org/1999/xlink" width="200" height="200"><defs><style type="text/css"></style></defs><path d="M 588.6 568.3 l -0.3 -0.3 c -52.2 -51.4 -104.7 -105.4 -157.4 -161.5 l -79.2 79.1 c 56.4 52.4 110.5 104.9 162.2 156.9 c 120.2 120.8 229.2 240.2 326.7 358.8 l 106.3 -106.2 c -118.7 -97.5 -238.1 -206.6 -358.3 -326.8 Z" fill="#f4c959" p-id="6786"></path><path d="M 415.6 363.2 l 110.9 -155.3 l -91.5 -91.6 l -218.5 121.5 L 69.1 495.4 l 84.3 85.6 l 155.1 -110.7 l 107.1 -107.1 Z" fill="#c2bbb4" p-id="6787"></path><path d="M 446.7 20.9 c -5 -0.8 -9.3 0 -13.2 2.3 L 177 169.6 c -3.3 1.8 -5.6 4.4 -7.5 7.5 L 23.2 433.6 c -2.3 3.8 -3.1 8.2 -2.3 13.1 c 0.2 4.4 2.3 8.5 5.6 11.9 l 115.1 115.1 c 3.3 3.3 7.8 5.4 13.2 5.9 c 4.9 0.2 9.3 -1 13.7 -3.9 l 157.2 -112.1 c 56.6 53.2 111.4 106.2 164.2 158.9 C 615 748.5 728 872.8 828.6 995.8 c 2.3 3.4 5.1 5.5 9 6.5 c 3.9 1.3 7.5 1.6 11.4 0.5 c 3.9 -0.8 7 -2.3 9.8 -5.1 l 138.6 -138.6 c 2.8 -2.8 4.7 -6.2 5.4 -10.1 c 1.1 -3.8 0.8 -7.5 -0.5 -11.3 c -1.3 -3.7 -3.4 -6.8 -6.2 -9.4 C 872.7 727.7 748.4 615 622.7 489.6 c -53 -52.5 -106.2 -107 -159.2 -163.9 l 112.2 -157.1 c 2.9 -4.5 4.2 -8.9 3.9 -13.8 c -0.5 -5.4 -2.6 -9.8 -6 -13.2 l -115.1 -115 c -3.3 -3.4 -7.5 -5.5 -11.8 -5.7 Z m 146.9 497.9 l 0.2 0.3 C 714 639.3 833.5 748.5 952.1 845.9 L 845.9 952.1 C 748.4 833.5 639.3 714 519 593.3 c -51.6 -52 -105.6 -104.5 -162 -156.9 l 79.1 -79.2 c 52.7 56.1 105.2 110.2 157.5 161.6 Z m -434.9 13 l -91.6 -91.6 l 135.3 -237.6 L 440.2 67.2 l 91.5 91.5 l -110.8 155.4 l -107.1 107 l -155.1 110.7 Z" fill="#543b2a" p-id="6788"></path></svg>