<svg xmlns="http://www.w3.org/2000/svg" xmlns:xlink="http://www.w3.org/1999/xlink" preserveAspectRatio="xMidYMid" width="46" height="36" viewBox="0 0 46 36">
  <defs>
    <style>
      .cls-1 {
        fill: #32d3c3;
        fill-rule: evenodd;
      }
    </style>
  </defs>
  <path d="M23.000,8.000 L34.000,0.000 L46.000,7.000 L35.000,16.000 L23.000,8.000 ZM0.000,7.000 L12.000,0.000 L23.000,8.000 L11.000,16.000 L0.000,7.000 ZM10.000,26.000 L-0.000,18.000 L-0.000,9.000 L10.000,17.000 L10.000,26.000 ZM34.000,18.000 L23.000,26.000 L12.000,18.000 L23.000,10.000 L34.000,18.000 ZM22.000,36.000 L12.000,28.000 L12.000,20.000 L22.000,27.000 L22.000,36.000 ZM34.000,28.000 L24.000,36.000 L24.000,27.000 L34.000,20.000 L34.000,28.000 ZM46.000,18.000 L36.000,26.000 L36.000,17.000 L45.996,9.000 L46.000,18.000 Z" class="cls-1"/>
</svg>
