<svg aria-hidden="true" data-prefix="fac" data-icon="logo" role="img" xmlns="http://www.w3.org/2000/svg" viewBox="0 0 75 75" class="blue6 svg-inline--fa fa-logo fa-w-16" style="transform-origin: 0.5em 0.49375em 0px;"><g transform="translate(37.5 256)" class=""><g transform="translate(0, -3.2)  scale(1, 1)  rotate(0 0 0)" class=""><path fill="currentColor" d="M66.6,0H8.4C3.8,0,0,3.8,0,8.4v58.2C0,71.2,3.8,75,8.4,75h58.2c4.6,0,8.4-3.8,8.4-8.4V8.4C75,3.8,71.2,0,66.6,0z M59,47.6 c0,0.7-0.6,1-1.3,1.3c-2.8,1.2-5.8,2.3-9,2.3c-4.5,0-6.6-2.8-12-2.8c-3.9,0-8,1.4-11.3,2.9c-0.2,0.1-0.4,0.1-0.6,0.2v7.6 c0,0.3,0,0.6-0.1,0.8v0.2c-0.4,1.4-1.7,2.4-3.2,2.4c-1.9,0-3.4-1.5-3.4-3.4V22.5c-1.3-1-2.2-2.6-2.2-4.4c0-3.1,2.5-5.6,5.6-5.6 s5.6,2.5,5.6,5.6c0,1.8-0.8,3.4-2.2,4.4v3.1c0.3-0.1,0.6-0.2,0.9-0.4c3.1-1.3,6.8-2.4,10.3-2.4c3.8,0,6.8,1,10.2,2.3  c0.7,0.3,1.4,0.4,2.2,0.4c3.8,0,8-2.7,9-2.7c0.8,0,1.5,0.6,1.5,1.3V47.6z" transform="translate(-37.5 -256)" class=""></path></g></g></svg>