<?xml version="1.0" standalone="no"?><!DOCTYPE svg PUBLIC "-//W3C//DTD SVG 1.1//EN" "http://www.w3.org/Graphics/SVG/1.1/DTD/svg11.dtd"><svg t="1524309380006" class="icon" style="" viewBox="0 0 1024 1024" version="1.1" xmlns="http://www.w3.org/2000/svg" p-id="1383" xmlns:xlink="http://www.w3.org/1999/xlink" width="200" height="200"><defs><style type="text/css"></style></defs><path d="M1024 853.333333c0 93.866667-76.8 170.666667-170.666667 170.666667H170.666667C76.8 1024 0 947.2 0 853.333333V170.666667C0 76.8 76.8 0 170.666667 0h682.666666c93.866667 0 170.666667 76.8 170.666667 170.666667v682.666666z" fill="#563D7C" p-id="1384"></path><path d="M278.4 222.933333h290.133333c53.333333 0 97.066667 11.733333 129.066667 37.333334s48 61.866667 48 110.933333c0 29.866667-7.466667 55.466667-22.4 76.8-14.933333 21.333333-36.266667 38.4-62.933333 50.133333v2.133334c37.333333 7.466667 65.066667 25.6 83.2 52.266666 19.2 26.666667 28.8 60.8 28.8 101.333334 0 23.466667-4.266667 45.866667-12.8 65.066666-8.533333 20.266667-21.333333 38.4-39.466667 52.266667-18.133333 14.933333-40.533333 26.666667-68.266667 35.2s-60.8 12.8-99.2 12.8H278.4V222.933333z m104.533333 249.6h170.666667c25.6 0 45.866667-7.466667 62.933333-21.333333 17.066667-13.866667 25.6-35.2 25.6-61.866667 0-29.866667-7.466667-51.2-22.4-64-14.933333-11.733333-37.333333-18.133333-65.066666-18.133333H384l-1.066667 165.333333z m0 262.4h184.533334c32 0 56.533333-8.533333 73.6-24.533333 17.066667-16 26.666667-39.466667 26.666666-70.4 0-29.866667-8.533333-52.266667-26.666666-68.266667s-42.666667-23.466667-73.6-23.466666H382.933333v186.666666z" fill="#FFFFFF" p-id="1385"></path></svg>