<svg xmlns="http://www.w3.org/2000/svg" viewBox="0 0 192 191.99999" width="192" height="192"><title>Mocha Logo</title><path d="M169.47386 143.90113l-68.70282 39.69498c-2.958045 1.71756-6.584028 1.71756-9.542066 0L22.52614 143.90113c-2.958038-1.71757-4.77103-4.86645-4.77103-8.20617V56.305021c0-3.435142 1.812992-6.488601 4.77103-8.206172L91.228974 8.403878c2.958038-1.717571 6.584021-1.717571 9.542056 0l68.70282 39.694971c2.95804 1.717571 4.77104 4.866451 4.77104 8.206172v79.389939c-.0954 3.33972-1.90842 6.4886-4.77104 8.20617z" clip-rule="evenodd" fill="#8d6748" fill-rule="evenodd"/><path d="M95.904583 22.049024c.954207 0 1.812992.286262 2.671781.763365l59.351606 34.255996c1.62216.954206 2.67177 2.767198 2.67177 4.67561v68.511985c0 1.90842-1.04962 3.72141-2.67177 4.67562l-59.351606 34.25599c-.858789.47711-1.717574.76336-2.671781.76336-.954206 0-1.908412-.28625-2.671777-.76336L33.881192 134.9316c-1.62215-.95421-2.671778-2.7672-2.671778-4.67562V61.743995c0-1.908412 1.049628-3.721404 2.671778-4.67561l59.351614-34.255996c.858785-.477103 1.812992-.763365 2.671777-.763365m0-2.862618c-1.431309 0-2.862618.381683-4.103085 1.145048L32.449883 54.58745c-2.576357 1.431309-4.103086 4.198506-4.103086 7.061124v68.511996c0 2.95803 1.526729 5.62981 4.103086 7.06112l59.351615 34.25599c1.240467.76337 2.671776 1.14506 4.103085 1.14506 1.431309 0 2.862617-.38169 4.103097-1.14506l59.35159-34.25599c2.57636-1.43131 4.10309-4.1985 4.10309-7.06112V61.648574c0-2.958038-1.52673-5.629815-4.10309-7.061124l-59.35159-34.255996c-1.24048-.763365-2.671788-1.145048-4.103097-1.145048z" fill="#fff"/><path d="M104.3493 61.648574c0-.477103-.381682-.954206-.954206-.954206H85.456021c-.477103 0-.954206.381682-.954206.954206 0 3.2443.477103 14.40851 5.248133 19.847485.190841.190841.381683.286262.667944.286262h8.01533c.286263 0 .477104-.09542.667945-.286262 4.77103-5.343554 5.248133-16.507764 5.248133-19.847485zm-7.061124 17.36655H91.65836c-.286262 0-.477103-.095421-.667944-.286263-3.2443-3.816824-3.625983-11.450472-3.721403-14.122249 0-.477103.381682-.954206.954206-.954206h12.595519c.477103 0 .954206.381683.954206.954206 0 2.671777-.477103 10.210005-3.721403 14.12225-.286262.19084-.477103.286261-.763365.286261zM96.23855 58.785956s3.43514-2.003833 1.335888-5.629816c-1.240468-1.908412-1.812992-3.530562-1.335889-4.198506-1.240468 1.52673-3.339721 3.14888-1.049627 6.584021.763365.858786 1.145048 2.671777 1.049627 3.2443zM92.421725 59.072217s2.290094-1.335888.858785-3.816824c-.858785-1.240467-1.240467-2.385515-.858785-2.767197-.858785 1.049627-2.194674 2.099253-.667944 4.484768.477103.477103.667944 1.717571.667944 2.099253z" fill="#fff"/><path d="M100.246214 70.141007c-.381682 2.576357-1.145047 5.534395-2.767197 7.442807-.190841.190841-.381682.286262-.572524.286262h-4.77103c-.190841 0-.477103-.09542-.572523-.286262-1.145048-1.431309-1.908412-3.33972-2.385515-5.343553 0 0 5.534394.763364 8.683274-.381683 2.290095-.858785 2.385515-1.71757 2.385515-1.71757z" fill="#fff"/><g fill="#fff"><path d="M37.554879 85.599145h3.530562l5.820657 8.969536 5.820657-8.969536h3.530562v19.08412h-3.339721V91.03812l-6.011498 8.969537h-.09542L40.8946 91.13354v13.645146h-3.339721V85.599145zM73.528446 104.969527c-1.43131 0-2.767198-.286262-4.007665-.763365-1.240468-.477103-2.290095-1.240468-3.14888-2.099253-.858786-.858785-1.52673-1.908412-2.003833-3.14888-.477103-1.145047-.763365-2.480936-.763365-3.816824v-.09542c0-1.335889.286262-2.576357.763365-3.816825.477103-1.145047 1.145047-2.194674 2.099253-3.14888.858786-.858785 1.908412-1.62215 3.14888-2.099253 1.240468-.572523 2.576356-.763365 4.007665-.763365 1.43131 0 2.767198.286262 4.007666.763365 1.240468.477103 2.290094 1.240468 3.14888 2.099253.858785.858786 1.52673 1.908412 2.003832 3.14888.477103 1.145048.763365 2.480936.763365 3.816824v.095421c0 1.335888-.286262 2.576356-.763365 3.816824-.477103 1.145047-1.145047 2.194674-2.099253 3.14888-.858785.858785-1.908412 1.62215-3.14888 2.099253-1.240468.572524-2.576356.763365-4.007665.763365zm0-3.05346c.954206 0 1.812991-.19084 2.576356-.572523.763365-.381682 1.43131-.858785 2.003833-1.431309.572523-.572524.954206-1.335888 1.335888-2.099253.286262-.858786.477103-1.717571.477103-2.576356v-.095421c0-.954206-.190841-1.812991-.477103-2.671777-.286262-.858785-.763365-1.52673-1.335888-2.194674-.572524-.572523-1.240468-1.049626-2.003833-1.431309-.763365-.381682-1.62215-.572523-2.576356-.572523-.954206 0-1.812992.19084-2.576356.572523-.763365.381683-1.43131.858786-2.003833 1.43131-.572524.572523-.954206 1.335888-1.335888 2.099253-.286262.858785-.477104 1.71757-.477104 2.576356v.09542c0 .954206.190842 1.812992.477104 2.671777.286261.858786.763364 1.52673 1.335888 2.194674.572524.572524 1.240468 1.049627 2.003833 1.43131.763364.381682 1.71757.572523 2.576356.572523zM99.67369 104.969527c-1.431308 0-2.671776-.286262-3.816823-.763365-1.145048-.477103-2.194674-1.240468-3.05346-2.099253-.858785-.858785-1.52673-1.908412-2.003832-3.14888-.477103-1.240468-.763365-2.480936-.763365-3.816824v-.09542c0-1.335889.286262-2.671777.763365-3.816825.477103-1.145047 1.145047-2.194674 2.003832-3.14888.858786-.858785 1.908412-1.62215 3.14888-2.099253 1.240468-.477103 2.480936-.763365 4.007666-.763365.858785 0 1.62215.095421 2.385515.190842.763364.19084 1.335888.381682 2.003832.572523.572524.286262 1.145047.572524 1.62215.954206.477104.381683.954207.763365 1.43131 1.240468l-2.194674 2.480936c-.763365-.667945-1.52673-1.240468-2.385515-1.717571-.858786-.477103-1.812992-.667944-2.958039-.667944-.954206 0-1.71757.19084-2.480936.572523-.763364.381683-1.431309.858786-2.003832 1.43131-.572524.572523-.954206 1.335888-1.335889 2.099253-.286262.858785-.477103 1.71757-.477103 2.576356v.09542c0 .954206.190841 1.812992.477103 2.671777.286262.858786.763365 1.52673 1.335889 2.194674.572523.572524 1.240468 1.145047 2.003832 1.43131.763365.28626 1.62215.572523 2.480936.572523 1.145047 0 2.194674-.190841 2.958039-.667944.763364-.477103 1.62215-1.049627 2.480935-1.812992l2.194674 2.194674c-.477103.572524-.954206.954206-1.52673 1.431309-.572523.477103-1.145047.763365-1.71757 1.049627-.572524.286261-1.335889.572523-2.003833.667944-.858785.190841-1.71757.190841-2.576356.190841zM114.177622 85.599145h3.339721v7.91991h9.160378v-7.91991h3.339721v19.08412h-3.33972v-8.01533h-9.160379v8.01533h-3.33972v-19.08412zM144.807636 85.503724h3.053459l8.397013 19.179541h-3.530563l-1.908412-4.580189h-8.969536l-2.003833 4.58019h-3.435141l8.397013-19.179542zm4.77103 11.641314l-3.2443-7.633649-3.244301 7.633649h6.4886z"/></g><path fill="#fff" d="M35.169365 110.69476h121.66127v1.049627H35.169365zM156.83062 74.816618h-51.71797c0 .381682-.0954.667943-.0954 1.049626h51.81338v-1.049626zM35.169364 74.816618v1.049626h48.759928c0-.381683-.09542-.667944-.09542-1.049626H35.169365z"/></svg>