<?xml version="1.0" standalone="no"?>
<!DOCTYPE svg PUBLIC "-//W3C//DTD SVG 20010904//EN"
 "http://www.w3.org/TR/2001/REC-SVG-20010904/DTD/svg10.dtd">
<svg version="1.0" xmlns="http://www.w3.org/2000/svg"
 width="700.000000pt" height="700.000000pt" viewBox="0 0 700.000000 700.000000"
 preserveAspectRatio="xMidYMid meet">
<metadata>
Created by potrace 1.11, written by Peter Selinger 2001-2013
</metadata>
<g transform="translate(0.000000,700.000000) scale(0.100000,-0.100000)"
fill="#000000" stroke="none">
<path d="M3180 5894 c-157 -124 -303 -240 -324 -258 l-40 -32 75 -59 c41 -33
81 -65 89 -72 8 -7 123 -98 254 -203 l239 -190 36 27 c20 15 159 126 310 246
150 120 282 224 292 230 11 7 19 15 19 19 0 3 -66 59 -147 122 -82 64 -155
122 -163 129 -109 89 -340 267 -347 267 -4 -1 -136 -102 -293 -226z"/>
<path d="M4775 4661 c-1306 -1033 -1296 -1025 -1320 -1010 -21 13 -79 58 -438
342 -62 49 -127 101 -146 115 -19 15 -60 47 -91 72 -32 25 -73 57 -91 72 -90
70 -486 383 -698 550 -40 32 -78 58 -83 58 -5 0 -75 -53 -155 -117 -80 -65
-155 -125 -166 -133 -12 -8 -35 -27 -51 -42 -16 -16 -33 -28 -37 -28 -21 0 -5
-21 44 -60 28 -22 60 -47 69 -55 9 -7 70 -55 135 -106 65 -51 159 -125 208
-164 132 -104 218 -173 874 -691 327 -258 607 -477 621 -486 25 -17 27 -17 51
2 13 10 63 49 110 87 47 37 101 80 120 95 206 162 547 431 559 441 8 7 85 67
170 134 85 67 259 203 385 303 127 100 316 249 422 332 106 83 190 154 188
159 -6 8 -394 322 -410 330 -5 3 -127 -87 -270 -200z"/>
<path d="M396 3655 c-104 -84 -195 -160 -203 -168 -16 -15 -37 3 547 -457 227
-179 223 -176 394 -311 71 -56 248 -196 395 -311 261 -206 307 -242 360 -284
14 -12 157 -124 317 -250 159 -126 507 -400 772 -609 266 -209 486 -381 491
-383 5 -2 51 30 102 71 149 116 617 485 694 546 39 31 88 70 109 86 21 17 44
35 50 40 6 6 81 65 166 132 142 110 404 316 440 346 8 7 35 28 60 47 25 19 54
43 65 52 11 9 101 80 200 158 199 156 289 227 605 476 118 93 222 174 230 181
17 14 215 170 305 241 33 25 62 49 65 52 3 4 41 33 85 67 44 33 90 70 103 81
l23 20 -68 53 c-37 30 -70 56 -73 59 -8 9 -153 126 -206 166 -27 21 -50 41
-52 46 -9 21 -46 -1 -200 -123 -92 -72 -176 -138 -187 -147 -11 -10 -72 -57
-135 -107 -63 -49 -117 -92 -120 -95 -3 -3 -45 -37 -95 -75 -49 -38 -104 -80
-121 -94 -34 -28 -37 -30 -139 -111 -38 -30 -77 -60 -85 -67 -8 -7 -139 -110
-290 -228 -151 -119 -284 -224 -295 -233 -11 -10 -99 -79 -195 -154 -96 -75
-279 -219 -407 -320 -127 -101 -289 -228 -359 -283 -70 -55 -159 -125 -198
-156 l-71 -57 -30 21 c-16 12 -32 24 -35 27 -3 3 -34 28 -70 55 -81 63 -99 77
-114 90 -6 6 -29 24 -51 40 -22 17 -42 32 -45 35 -3 3 -47 39 -99 80 -52 40
-102 79 -110 86 -9 8 -117 93 -241 190 -123 97 -240 189 -260 204 -39 32 -229
182 -855 675 -236 186 -497 392 -580 457 -340 270 -377 298 -389 297 -6 0 -96
-70 -200 -154z"/>
</g>
</svg>
