<svg xmlns="http://www.w3.org/2000/svg" data-v-5d825d8c="" version="1.1" viewBox="0 0 33 33" class="svg-icon svg-fill" style="width: 32px; height: 32px; float: left; display: inline-block;"><g _fill="none" fill-rule="evenodd"><path fill="#409EFF" stroke="none" pid="0" d="M13.606 29.461l-3.413 1.795a3.294 3.294 0 0 1-4.78-3.473l.653-3.8a5.36 5.36 0 0 0-1.542-4.744l-2.761-2.692a3.294 3.294 0 0 1 1.825-5.618l3.816-.554a5.36 5.36 0 0 0 4.036-2.933l1.706-3.457a3.294 3.294 0 0 1 5.908 0l1.706 3.457a5.36 5.36 0 0 0 4.036 2.933l3.816.554a3.294 3.294 0 0 1 1.825 5.618l-2.761 2.692a5.36 5.36 0 0 0-1.542 4.744l.652 3.8a3.294 3.294 0 0 1-4.779 3.473l-3.413-1.795a5.36 5.36 0 0 0-4.988 0z" _fill="#000"></path><path fill="#FFF" stroke="none" pid="1" d="M15.414 11.754h1.867L21.738 22h-2.547l-.883-2.17h-3.98L13.476 22h-2.49l4.429-10.246zm.868 2.981l-1.244 3.184h2.503l-1.259-3.184z" _fill="#FFF"></path></g></svg>