<?xml version="1.0" standalone="no"?><!DOCTYPE svg PUBLIC "-//W3C//DTD SVG 1.1//EN" "http://www.w3.org/Graphics/SVG/1.1/DTD/svg11.dtd"><svg t="1534427919419" class="icon" style="" viewBox="0 0 1024 1024" version="1.1" xmlns="http://www.w3.org/2000/svg" p-id="3294" xmlns:xlink="http://www.w3.org/1999/xlink" width="200" height="200"><defs><style type="text/css"></style></defs><path d="M152.365176 104.150058l65.435315 734.146473 293.749254 81.553411 294.51571-81.664951 65.568345-734.034932L152.381549 104.150058 152.365176 104.150058 152.365176 104.150058zM729.161948 344.259648 384.611681 344.259648l8.206916 92.206028 328.169181 0L696.256514 712.889333l-184.690396 51.17759L327.102896 712.889333l-12.607132-141.407614 90.410126 0 6.412037 71.879074 100.263541 27.01426 0.228197-0.064468 100.31573-27.077705 10.409071-116.749004L310.478264 526.483876l-24.288173-272.262894 451.030393 0L729.161948 344.259648 729.161948 344.259648 729.161948 344.259648zM729.161948 344.259648" p-id="3295" fill="#d81e06"></path></svg>