<?xml version="1.0" standalone="no"?><!DOCTYPE svg PUBLIC "-//W3C//DTD SVG 1.1//EN" "http://www.w3.org/Graphics/SVG/1.1/DTD/svg11.dtd"><svg t="1534424090704" class="icon" style="" viewBox="0 0 1024 1024" version="1.1" xmlns="http://www.w3.org/2000/svg" p-id="3396" xmlns:xlink="http://www.w3.org/1999/xlink" width="200" height="200"><defs><style type="text/css"></style></defs><path d="M416 176.002l-160 0 0 424.996c0 105.16-36.064 134.522-98.824 134.522-29.41 0-55.896-5.042-76.5-12.126L64 847.808c29.4 10.124 74.518 16.192 109.814 16.192C317.91 864 416 796.258 416 602.04L416 176.002 416 176.002z" p-id="3397" fill="#f4ea2a"></path><path d="M764.926 160C610.04 160 512 247.996 512 364.308c0 100.166 75.502 162.88 185.282 203.33 79.4 28.316 110.784 53.616 110.784 95.078 0 45.512-36.278 74.85-104.896 74.85-63.726 0-121.578-21.28-160.788-42.51l0-0.042L512 821.454c37.278 21.276 106.882 42.51 182.334 42.51C875.708 863.96 960 766.86 960 652.568c0-97.1-53.916-159.8-170.556-204.326-86.278-34.382-122.54-53.59-122.54-97.084 0-34.4 31.376-65.738 96.086-65.738 63.692 0 107.488 21.414 133.01 34.582l38.25-128C894.25 174.44 840.376 160 764.926 160L764.926 160z" p-id="3398" fill="#f4ea2a"></path></svg>