<?xml version="1.0" standalone="no"?><!DOCTYPE svg PUBLIC "-//W3C//DTD SVG 1.1//EN" "http://www.w3.org/Graphics/SVG/1.1/DTD/svg11.dtd"><svg t="1524299579084" class="icon" style="" viewBox="0 0 1024 1024" version="1.1" xmlns="http://www.w3.org/2000/svg" p-id="1374" xmlns:xlink="http://www.w3.org/1999/xlink" width="200" height="200"><defs><style type="text/css"></style></defs><path d="M65.450667 250.624c-90.581333 130.133333-79.36 299.392-10.112 437.589333 1.578667 3.370667 3.328 6.570667 5.034666 9.770667 0.981333 2.218667 2.090667 4.266667 3.285334 6.357333 0.554667 1.194667 1.322667 2.432 2.005333 3.541334 1.109333 2.218667 2.304 4.352 3.456 6.485333l6.698667 11.306667c1.237333 2.090667 2.432 4.138667 3.84 6.229333 2.346667 4.010667 5.12 7.978667 7.552 11.989333 1.109333 1.664 2.133333 3.328 3.370666 4.992a271.36 271.36 0 0 0 13.226667 18.944c3.328 4.565333 6.656 9.002667 10.24 13.44 1.152 1.621333 2.432 3.242667 3.626667 4.864l9.429333 11.477334c1.152 1.322667 2.304 2.858667 3.541333 4.224 4.181333 5.034667 8.618667 9.941333 13.056 14.890666 0 0.085333 0.128 0.170667 0.213334 0.298667a133.546667 133.546667 0 0 0 18.090666 18.773333c3.413333 3.498667 6.826667 6.997333 10.453334 10.410667l4.309333 4.138667c4.736 4.437333 9.472 8.874667 14.464 13.141333 0.085333 0 0.128 0.085333 0.213333 0.128l2.432 2.133333c4.352 3.797333 8.746667 7.594667 13.226667 11.093334l5.333333 4.48c3.626667 2.901333 7.381333 5.674667 11.093334 8.533333l5.802666 4.437333c3.968 2.986667 8.192 5.930667 12.245334 8.832 1.493333 1.066667 2.986667 2.133333 4.522666 3.114667l1.237334 0.981333 11.989333 7.893334 5.12 3.413333c6.272 4.010667 12.501333 7.808 18.688 11.562667 1.792 0.896 3.584 1.877333 5.248 2.901333 4.608 2.645333 9.386667 5.333333 14.037333 7.808 2.56 1.450667 5.205333 2.688 7.850667 4.010667 3.2 1.792 6.528 3.541333 9.941333 5.333333a13.824 13.824 0 0 1 2.389334 0.981333c1.408 0.64 2.730667 1.322667 4.096 2.005334 5.12 2.56 10.453333 4.992 16 7.424 1.024 0.426667 2.133333 0.853333 3.242666 1.450666 6.144 2.688 12.288 5.248 18.645334 7.765334 1.450667 0.426667 2.986667 1.152 4.48 1.706666 5.76 2.176 11.690667 4.394667 17.536 6.485334l2.133333 0.768c6.528 2.218667 12.970667 4.352 19.584 6.4 1.536 0.426667 3.114667 0.981333 4.736 1.408 6.784 2.048 13.354667 4.48 20.181333 5.802666 437.76 79.786667 564.992-263.210667 564.992-263.210666-106.88 139.178667-296.533333 175.872-476.16 135.04-6.656-1.536-13.312-3.669333-20.010666-5.632a576.938667 576.938667 0 0 1-24.192-7.722667l-2.645334-1.024c-5.802667-1.962667-11.392-4.138667-17.066666-6.314667a68.821333 68.821333 0 0 0-4.693334-1.749333c-6.272-2.517333-12.373333-5.12-18.432-7.808-1.322667-0.426667-2.432-1.024-3.754666-1.536a998.826667 998.826667 0 0 1-15.402667-7.253333 63.274667 63.274667 0 0 1-4.522667-2.218667c-4.010667-1.877333-8.021333-4.010667-11.946666-6.058667a168.192 168.192 0 0 1-7.978667-4.096c-4.821333-2.56-9.642667-5.333333-14.464-7.978666-1.450667-1.024-3.114667-1.877333-4.778667-2.816a678.485333 678.485333 0 0 1-18.688-11.477334 89.770667 89.770667 0 0 1-5.034666-3.370666 256.085333 256.085333 0 0 1-13.312-8.789334c-1.493333-0.981333-2.858667-2.048-4.394667-3.114666a407.082667 407.082667 0 0 1-12.544-9.045334c-1.792-1.450667-3.712-2.816-5.632-4.266666-3.754667-2.944-7.552-5.76-11.306667-8.874667l-5.034666-4.010667a451.413333 451.413333 0 0 1-14.250667-11.989333 11.008 11.008 0 0 0-1.578667-1.28l-14.805333-13.482667-4.266667-4.010666c-3.498667-3.541333-7.082667-6.954667-10.666666-10.453334l-4.138667-4.266666a386.986667 386.986667 0 0 1-13.184-13.781334l-0.64-0.682666a765.610667 765.610667 0 0 1-13.354667-15.104c-1.152-1.322667-2.218667-2.730667-3.413333-4.138667l-9.642667-11.818667a906.581333 906.581333 0 0 1-14.506666-19.114666C92.16 502.869333 56.106667 315.136 135.850667 161.152" fill="#1296db" p-id="1375"></path><path d="M346.496 141.013333c-65.664 94.250667-61.952 220.288-10.837333 319.957334a388.266667 388.266667 0 0 0 28.885333 48.298666c9.813333 14.08 20.650667 30.72 33.792 42.069334 4.565333 5.205333 9.514667 10.24 14.677333 15.317333l3.84 3.84c4.864 4.693333 9.856 9.301333 14.933334 13.866667l0.64 0.554666a420.48 420.48 0 0 0 17.664 14.592c1.450667 0.981333 2.688 2.133333 4.096 3.114667 5.973333 4.608 11.989333 9.045333 18.218666 13.44l0.64 0.384c2.645333 1.92 5.461333 3.669333 8.448 5.546667 1.194667 0.768 2.56 1.792 3.84 2.56 4.522667 2.901333 8.96 5.632 13.525334 8.405333 0.725333 0.298667 1.365333 0.682667 2.048 0.981333 3.84 2.346667 8.021333 4.608 12.032 6.698667 1.408 0.853333 2.773333 1.493333 4.224 2.304 2.858667 1.408 5.674667 2.901333 8.405333 4.352l1.365333 0.597333c5.76 2.816 11.648 5.461333 17.408 8.106667 1.450667 0.554667 2.688 1.024 3.925334 1.621333 4.736 2.048 9.557333 4.010667 14.293333 5.845334 2.133333 0.725333 4.138667 1.578667 6.144 2.218666 4.352 1.621333 8.917333 3.114667 13.226667 4.608l5.973333 1.92c6.229333 1.92 12.544 4.437333 19.114667 5.504 337.92 56.021333 416.170667-204.245333 416.170666-204.245333-70.442667 101.376-206.762667 149.674667-352.042666 111.957333a342.613333 342.613333 0 0 1-19.114667-5.546666c-2.048-0.554667-3.84-1.194667-5.802667-1.792-4.437333-1.536-9.002667-3.029333-13.312-4.650667l-6.144-2.304c-4.778667-1.92-9.642667-3.712-14.293333-5.76-1.450667-0.64-2.773333-1.066667-3.882667-1.706667-5.973333-2.688-11.989333-5.333333-17.792-8.192l-8.789333-4.565333-5.077333-2.56a241.92 241.92 0 0 1-11.306667-6.4 26.453333 26.453333 0 0 1-2.645333-1.450667c-4.522667-2.816-9.216-5.546667-13.525334-8.448-1.450667-0.810667-2.773333-1.792-4.138666-2.645333l-8.874667-5.802667c-6.144-4.266667-12.16-8.874667-18.218667-13.312-1.365333-1.237333-2.688-2.261333-4.010666-3.370666-63.872-50.218667-114.261333-118.869333-138.154667-196.608-25.173333-80.810667-19.626667-171.434667 23.850667-244.992" fill="#1296db" p-id="1376"></path><path d="M582.826667 59.050667c-38.741333 56.832-42.453333 127.402667-15.786667 190.08 28.330667 66.56 86.272 118.826667 153.770667 143.573333 2.773333 1.066667 5.461333 1.962667 8.32 2.986667l3.754666 1.152c3.925333 1.237333 7.893333 2.688 11.946667 3.584 186.709333 36.010667 237.226667-95.872 250.837333-115.242667-44.458667 63.829333-118.997333 79.146667-210.432 56.917333a206.677333 206.677333 0 0 1-22.016-6.826666 270.677333 270.677333 0 0 1-26.325333-10.837334 278.229333 278.229333 0 0 1-46.08-28.16c-81.92-62.037333-132.650667-180.48-79.232-276.949333" fill="#1296db" p-id="1377"></path></svg>