<?xml version="1.0" encoding="UTF-8" standalone="no"?>
<svg width="175px" height="200px" viewBox="0 0 175 200" version="1.1" xmlns="http://www.w3.org/2000/svg" xmlns:xlink="http://www.w3.org/1999/xlink">
    <!-- Generator: Sketch 3.8.2 (29753) - http://www.bohemiancoding.com/sketch -->
    <title>绿叶@1x</title>
    <desc>Created with Sketch.</desc>
    <defs></defs>
    <g id="Page-1" stroke="none" stroke-width="1" fill="none" fill-rule="evenodd">
        <g id="256-copy" transform="translate(-40.000000, -28.000000)" fill="#26a2ff">
            <g id="绿叶" transform="translate(40.000000, 28.000000)">
                <g id="Group" transform="translate(0.304688, 0.000000)">
                    <path d="M83.7294895,155.011876 C82.10935,151.660159 80.0364807,147.116712 77.9075932,141.75552 C75.7787057,144.503597 73.4596357,147.267423 70.95756,150.063544 L66.9944283,154.575095 L61.9745279,152.45438 C47.3041625,146.266871 4.76229609,125.583829 0.377732617,92.1763035 C-2.75948086,57.3709166 17.6057932,39.0864861 10.2429004,19.7377117 C39.9410705,26.8386549 63.3564408,38.3399104 78.3366002,53.0579211 C101.839287,23.0579309 131.94294,21.882348 139.972668,0 C195.739393,77.9427199 186.843279,149.18998 93.8883039,160.674889 C86.0252354,175.139123 77.264282,188.570113 67.7408049,200 L54.7067266,191.90628 C65.8822395,181.175523 75.4455873,168.649794 83.7294895,155.011876 L83.7294895,155.011876 L83.7294895,155.011876 Z M92.6971715,116.179764 C94.6352785,121.398021 96.6210307,125.6235 97.8998783,128.188771 C111.434531,98.8005945 120.671938,66.6639422 128.114372,37.0690369 C120.092021,45.4089572 104.635408,48.665583 92.5305127,65.4329393 C91.7681879,66.5766258 91.1005559,67.7601826 90.5052887,68.9674627 C98.0667365,82.9705945 99.2261719,98.9437297 92.6971715,116.179764 L92.6971715,116.179764 L92.6971715,116.179764 Z M52.6097354,127.712318 C47.4628473,99.0627434 40.5128141,72.4383926 28.3524986,48.8800863 L28.3524986,48.8800863 C41.3309576,66.9976586 56.4064076,93.2645699 64.3968625,122.994238 C92.4350227,89.7615443 74.0951721,54.9402092 22.387467,42.5893125 C27.1928639,55.2264797 13.8886627,67.1722916 15.937809,89.9126535 C18.956009,112.859346 44.6272545,124.487788 52.6097354,127.712318 L52.6097354,127.712318 L52.6097354,127.712318 Z M108.781346,129.690296 C159.710579,120.921368 165.445159,80.6830223 135.810781,35.7901893 C132.029858,62.9545865 122.593897,97.1882299 108.781346,129.690296 L108.781346,129.690296 Z" id="Shape"></path>
                </g>
            </g>
        </g>
    </g>
</svg>