<?xml version="1.0" standalone="no"?><!DOCTYPE svg PUBLIC "-//W3C//DTD SVG 1.1//EN" "http://www.w3.org/Graphics/SVG/1.1/DTD/svg11.dtd"><svg t="1535633304348" class="icon" style="" viewBox="0 0 1024 1024" version="1.1" xmlns="http://www.w3.org/2000/svg" p-id="1446" xmlns:xlink="http://www.w3.org/1999/xlink" width="200" height="200"><defs><style type="text/css"></style></defs><path d="M512 0C229.376 0 0 229.376 0 512s229.376 512 512 512 512-229.376 512-512S794.624 0 512 0z m0 962.56C262.144 962.56 61.44 761.856 61.44 512S262.144 61.44 512 61.44s450.56 200.704 450.56 450.56-200.704 450.56-450.56 450.56z" fill="" p-id="1447"></path><path d="M512 512m-409.6 0a409.6 409.6 0 1 0 819.2 0 409.6 409.6 0 1 0-819.2 0Z" fill="#FFEA00" p-id="1448"></path><path d="M657.408 266.24c-90.112 0-161.792 73.728-161.792 163.84v163.84c0 59.392-49.152 108.544-108.544 108.544s-108.544-49.152-108.544-108.544 49.152-108.544 108.544-108.544V430.08c-90.112 0-161.792 73.728-161.792 163.84s71.68 163.84 161.792 163.84 161.792-73.728 161.792-163.84v-163.84c0-59.392 49.152-108.544 108.544-108.544s108.544 49.152 108.544 108.544-49.152 108.544-108.544 108.544V593.92c90.112 0 161.792-73.728 161.792-163.84s-71.68-163.84-161.792-163.84z" fill="" p-id="1449"></path></svg>