<?xml version="1.0" standalone="no"?><!DOCTYPE svg PUBLIC "-//W3C//DTD SVG 1.1//EN" "http://www.w3.org/Graphics/SVG/1.1/DTD/svg11.dtd"><svg t="1534514940483" class="icon" style="" viewBox="0 0 1024 1024" version="1.1" xmlns="http://www.w3.org/2000/svg" p-id="4286" xmlns:xlink="http://www.w3.org/1999/xlink" width="200" height="200"><defs><style type="text/css"></style></defs><path d="M0 3.135755h1020.864245v1020.864245H0z" fill="#19BE96" p-id="4287"></path><path d="M655.054557 584.225295c0 72.799531-20.475134 129.741637-61.425401 170.819512-40.948566 41.086383-97.826018 61.62447-170.620444 61.624471-75.746426 0-133.423554-19.735007-173.031386-59.216932C210.364391 717.980629 190.561326 660.237145 190.561326 584.223593V210.464776h79.891134v367.73742c0 54.869752 12.978587 96.551639 38.942568 125.05587 25.957175 28.504231 63.83294 42.755496 113.613684 42.755496 49.780743 0 87.583346-14.251265 113.40951-42.755496s38.7435-70.186118 38.7435-125.05587V210.464776H655.054557v373.760519zM769.051065 210.464776h69.260535v606.206203H769.051065z" fill="#FFFFFF" p-id="4288"></path></svg>